# Simplified convex box collision mesh
mtllib tip_006_2_box_collision_2.mtl
o tip_006_2_box_collision_2
v -0.001191000 0.002113000 -0.002144000
v 0.001801000 0.002113000 -0.002144000
v 0.001801000 0.005126000 -0.002144000
v -0.001191000 0.005126000 -0.002144000
v -0.001191000 0.002113000 0.001155000
v 0.001801000 0.002113000 0.001155000
v 0.001801000 0.005126000 0.001155000
v -0.001191000 0.005126000 0.001155000
usemtl collision_red
f 1 2 3
f 1 3 4
f 5 8 7
f 5 7 6
f 1 5 6
f 1 6 2
f 2 6 7
f 2 7 3
f 3 7 8
f 3 8 4
f 4 8 5
f 4 5 1
