# Simplified convex box collision mesh
mtllib tip_006_1_box_collision_1.mtl
o tip_006_1_box_collision_1
v -0.002562000 -0.000300000 -0.000163000
v 0.002563000 -0.000300000 -0.000163000
v 0.002563000 0.002713000 -0.000163000
v -0.002562000 0.002713000 -0.000163000
v -0.002562000 -0.000300000 0.002119000
v 0.002563000 -0.000300000 0.002119000
v 0.002563000 0.002713000 0.002119000
v -0.002562000 0.002713000 0.002119000
usemtl collision_red
f 1 2 3
f 1 3 4
f 5 8 7
f 5 7 6
f 1 5 6
f 1 6 2
f 2 6 7
f 2 7 3
f 3 7 8
f 3 8 4
f 4 8 5
f 4 5 1
