# Simplified convex box collision mesh
mtllib wrist_pitch_0091_box_collision_0.mtl
o wrist_pitch_0091_box_collision_0
v -0.027602000 0.178650000 -0.031205000
v 0.027152000 0.178650000 -0.031205000
v 0.027152000 0.219468500 -0.031205000
v -0.027602000 0.219468500 -0.031205000
v -0.027602000 0.178650000 0.031146000
v 0.027152000 0.178650000 0.031146000
v 0.027152000 0.219468500 0.031146000
v -0.027602000 0.219468500 0.031146000
usemtl collision_red
f 1 2 3
f 1 3 4
f 5 8 7
f 5 7 6
f 1 5 6
f 1 6 2
f 2 6 7
f 2 7 3
f 3 7 8
f 3 8 4
f 4 8 5
f 4 5 1
