# Simplified convex box collision mesh
mtllib wrist_pitch_0091_box_collision_1.mtl
o wrist_pitch_0091_box_collision_1
v -0.032011000 0.213468500 -0.033361000
v 0.031970000 0.213468500 -0.033361000
v 0.031970000 0.255787000 -0.033361000
v -0.032011000 0.255787000 -0.033361000
v -0.032011000 0.213468500 0.033303000
v 0.031970000 0.213468500 0.033303000
v 0.031970000 0.255787000 0.033303000
v -0.032011000 0.255787000 0.033303000
usemtl collision_red
f 1 2 3
f 1 3 4
f 5 8 7
f 5 7 6
f 1 5 6
f 1 6 2
f 2 6 7
f 2 7 3
f 3 7 8
f 3 8 4
f 4 8 5
f 4 5 1
