# Convex cylinder collision mesh fitted from roll_4670.obj
mtllib roll_4670_convex_hull_00.mtl
o roll_4670_convex_hull_00
v 0.043724000 0.267174000 0.000000500
v 0.042883836 0.267174000 0.008530824
v 0.040395633 0.267174000 0.016733333
v 0.036355009 0.267174000 0.024292808
v 0.030917244 0.267174000 0.030918744
v 0.024291308 0.267174000 0.036356509
v 0.016731833 0.267174000 0.040397133
v 0.008529324 0.267174000 0.042885336
v -0.000001000 0.267174000 0.043725500
v -0.008531324 0.267174000 0.042885336
v -0.016733833 0.267174000 0.040397133
v -0.024293308 0.267174000 0.036356509
v -0.030919244 0.267174000 0.030918744
v -0.036357009 0.267174000 0.024292808
v -0.040397633 0.267174000 0.016733333
v -0.042885836 0.267174000 0.008530824
v -0.043726000 0.267174000 0.000000500
v -0.042885836 0.267174000 -0.008529824
v -0.040397633 0.267174000 -0.016732333
v -0.036357009 0.267174000 -0.024291808
v -0.030919244 0.267174000 -0.030917744
v -0.024293308 0.267174000 -0.036355509
v -0.016733833 0.267174000 -0.040396133
v -0.008531324 0.267174000 -0.042884336
v -0.000001000 0.267174000 -0.043724500
v 0.008529324 0.267174000 -0.042884336
v 0.016731833 0.267174000 -0.040396133
v 0.024291308 0.267174000 -0.036355509
v 0.030917244 0.267174000 -0.030917744
v 0.036355009 0.267174000 -0.024291808
v 0.040395633 0.267174000 -0.016732333
v 0.042883836 0.267174000 -0.008529824
v 0.043724000 5.863421000 0.000000500
v 0.042883836 5.863421000 0.008530824
v 0.040395633 5.863421000 0.016733333
v 0.036355009 5.863421000 0.024292808
v 0.030917244 5.863421000 0.030918744
v 0.024291308 5.863421000 0.036356509
v 0.016731833 5.863421000 0.040397133
v 0.008529324 5.863421000 0.042885336
v -0.000001000 5.863421000 0.043725500
v -0.008531324 5.863421000 0.042885336
v -0.016733833 5.863421000 0.040397133
v -0.024293308 5.863421000 0.036356509
v -0.030919244 5.863421000 0.030918744
v -0.036357009 5.863421000 0.024292808
v -0.040397633 5.863421000 0.016733333
v -0.042885836 5.863421000 0.008530824
v -0.043726000 5.863421000 0.000000500
v -0.042885836 5.863421000 -0.008529824
v -0.040397633 5.863421000 -0.016732333
v -0.036357009 5.863421000 -0.024291808
v -0.030919244 5.863421000 -0.030917744
v -0.024293308 5.863421000 -0.036355509
v -0.016733833 5.863421000 -0.040396133
v -0.008531324 5.863421000 -0.042884336
v -0.000001000 5.863421000 -0.043724500
v 0.008529324 5.863421000 -0.042884336
v 0.016731833 5.863421000 -0.040396133
v 0.024291308 5.863421000 -0.036355509
v 0.030917244 5.863421000 -0.030917744
v 0.036355009 5.863421000 -0.024291808
v 0.040395633 5.863421000 -0.016732333
v 0.042883836 5.863421000 -0.008529824
v -0.000001000 0.267174000 0.000000500
v -0.000001000 5.863421000 0.000000500
usemtl collision_red
f 1 2 34
f 1 34 33
f 65 1 2
f 66 34 33
f 2 3 35
f 2 35 34
f 65 2 3
f 66 35 34
f 3 4 36
f 3 36 35
f 65 3 4
f 66 36 35
f 4 5 37
f 4 37 36
f 65 4 5
f 66 37 36
f 5 6 38
f 5 38 37
f 65 5 6
f 66 38 37
f 6 7 39
f 6 39 38
f 65 6 7
f 66 39 38
f 7 8 40
f 7 40 39
f 65 7 8
f 66 40 39
f 8 9 41
f 8 41 40
f 65 8 9
f 66 41 40
f 9 10 42
f 9 42 41
f 65 9 10
f 66 42 41
f 10 11 43
f 10 43 42
f 65 10 11
f 66 43 42
f 11 12 44
f 11 44 43
f 65 11 12
f 66 44 43
f 12 13 45
f 12 45 44
f 65 12 13
f 66 45 44
f 13 14 46
f 13 46 45
f 65 13 14
f 66 46 45
f 14 15 47
f 14 47 46
f 65 14 15
f 66 47 46
f 15 16 48
f 15 48 47
f 65 15 16
f 66 48 47
f 16 17 49
f 16 49 48
f 65 16 17
f 66 49 48
f 17 18 50
f 17 50 49
f 65 17 18
f 66 50 49
f 18 19 51
f 18 51 50
f 65 18 19
f 66 51 50
f 19 20 52
f 19 52 51
f 65 19 20
f 66 52 51
f 20 21 53
f 20 53 52
f 65 20 21
f 66 53 52
f 21 22 54
f 21 54 53
f 65 21 22
f 66 54 53
f 22 23 55
f 22 55 54
f 65 22 23
f 66 55 54
f 23 24 56
f 23 56 55
f 65 23 24
f 66 56 55
f 24 25 57
f 24 57 56
f 65 24 25
f 66 57 56
f 25 26 58
f 25 58 57
f 65 25 26
f 66 58 57
f 26 27 59
f 26 59 58
f 65 26 27
f 66 59 58
f 27 28 60
f 27 60 59
f 65 27 28
f 66 60 59
f 28 29 61
f 28 61 60
f 65 28 29
f 66 61 60
f 29 30 62
f 29 62 61
f 65 29 30
f 66 62 61
f 30 31 63
f 30 63 62
f 65 30 31
f 66 63 62
f 31 32 64
f 31 64 63
f 65 31 32
f 66 64 63
f 32 1 33
f 32 33 64
f 65 32 1
f 66 33 64
