# Sampled convex hull collision mesh generated from visual mesh slice for tip_006_1_convex_hull_04
mtllib tip_006_1_convex_hull_04.mtl
o tip_006_1_convex_hull_04
v -0.001636000 0.002751000 0.000588000
v -0.001603000 0.002777000 0.000461000
v -0.001329000 0.002754000 0.000133000
v -0.001021000 0.002656000 0.000036000
v 0.001041000 0.002319000 0.000137000
v 0.001041000 0.002346000 0.001728000
v 0.000914000 0.002351000 0.001859000
v 0.000254000 0.002352000 0.001861000
v -0.000100000 0.002393000 0.001967000
v -0.001228000 0.002467000 0.001941000
v -0.001540000 0.002664000 0.001756000
v -0.001593000 0.002679000 0.001674000
v -0.001651000 0.002388000 0.000991000
v -0.001651000 0.002619000 0.001463000
v 0.001041000 0.002318000 0.000197000
v -0.001062000 0.002448000 0.001968000
v -0.001641000 0.003190000 0.000494000
v 0.001015000 0.002921000 0.000074000
v 0.001041000 0.002838000 0.000362000
v 0.001040000 0.003139000 0.000995000
v 0.001041000 0.002822000 0.001410000
v 0.001015000 0.002819000 0.001520000
v -0.000270000 0.002827000 0.001911000
v -0.000322000 0.003216000 0.001708000
v -0.001436000 0.002794000 0.001822000
v -0.001494000 0.002835000 0.001750000
v -0.001632000 0.003040000 0.001230000
v -0.001651000 0.002787000 0.001305000
v -0.001040000 0.003250000 0.001682000
v -0.001140000 0.002791000 0.001921000
v -0.001587000 0.003709000 0.000123000
v -0.001452000 0.003694000 -0.000253000
v -0.001285000 0.003716000 -0.000678000
v -0.000288000 0.003712000 -0.000629000
v -0.000130000 0.003690000 -0.000054000
v 0.001040000 0.003260000 0.000388000
v 0.001015000 0.003265000 0.000824000
v -0.000130000 0.003307000 0.001487000
v -0.000328000 0.003281000 0.001657000
v -0.001219000 0.003311000 0.001590000
v -0.001397000 0.003261000 0.001509000
v -0.001585000 0.003314000 0.001109000
v -0.001640000 0.003346000 0.000736000
v -0.001642000 0.003324000 0.000548000
v 0.001040000 0.003258000 0.000611000
v -0.000247000 0.003716000 -0.000524000
v -0.001226000 0.003710000 -0.000678000
v -0.001039000 0.003258000 0.001676000
usemtl collision_red
f 4 5 13
f 8 16 13
f 3 4 13
f 3 4 33
f 15 5 13
f 15 8 13
f 47 34 5
f 47 34 33
f 47 4 5
f 47 4 33
f 18 34 5
f 2 3 13
f 2 3 33
f 9 8 16
f 39 22 37
f 6 15 8
f 6 21 22
f 43 31 42
f 46 34 33
f 46 31 33
f 36 18 34
f 36 46 34
f 36 19 5
f 36 18 5
f 1 2 13
f 1 2 31
f 32 31 33
f 32 2 33
f 32 2 31
f 40 39 31
f 23 9 16
f 7 9 8
f 7 6 8
f 7 23 9
f 7 6 22
f 27 12 42
f 27 43 42
f 35 39 31
f 35 46 31
f 35 36 46
f 20 22 37
f 20 21 22
f 17 1 31
f 17 1 13
f 41 31 42
f 41 40 31
f 30 23 16
f 14 27 12
f 38 39 37
f 38 35 37
f 38 35 39
f 45 20 21
f 45 19 21
f 45 36 19
f 45 20 37
f 45 35 37
f 45 35 36
f 44 43 31
f 44 17 31
f 44 17 13
f 10 30 16
f 10 16 13
f 10 14 13
f 25 41 40
f 25 30 40
f 25 10 30
f 29 30 40
f 28 27 43
f 28 14 27
f 28 44 43
f 28 14 13
f 28 44 13
f 26 25 41
f 26 12 42
f 26 41 42
f 11 25 10
f 11 14 12
f 11 10 14
f 11 26 12
f 11 26 25
f 24 30 23
f 24 29 30
f 24 7 23
f 24 39 22
f 24 7 22
f 48 40 39
f 48 29 40
f 48 24 39
f 48 24 29
f 19 6 15
f 19 15 5
f 19 6 21
