# Sampled convex hull collision mesh generated from visual mesh slice for tip_006_1_convex_hull_02
mtllib tip_006_1_convex_hull_02.mtl
o tip_006_1_convex_hull_02
v -0.002219000 -0.000092000 0.000196000
v -0.002222000 -0.000092000 0.000119000
v -0.001141000 0.000066000 -0.000013000
v -0.000648000 0.000000000 -0.000013000
v 0.000648000 -0.000000000 -0.000013000
v 0.001141000 0.000066000 -0.000013000
v 0.002224000 0.000038000 0.000119000
v 0.002412000 -0.000029000 0.001188000
v 0.001966000 0.000042000 0.001572000
v 0.001226000 0.000026000 0.001941000
v 0.000610000 -0.000000000 0.001968000
v -0.001310000 0.000000000 0.001911000
v -0.001965000 -0.000052000 0.001572000
v -0.002411000 0.000065000 0.001188000
v -0.002412000 0.000065000 0.001174000
v 0.002413000 -0.000029000 0.001174000
v -0.002113000 -0.000093000 0.000488000
v -0.001596000 0.000360000 0.001766000
v -0.001062000 0.000000000 0.001968000
v -0.002338000 0.000596000 0.000979000
v -0.002185000 0.000419000 0.000119000
v -0.000990000 0.000572000 -0.000013000
v 0.000831000 0.000784000 -0.000013000
v 0.000990000 0.000572000 -0.000013000
v 0.002146000 0.000543000 0.000092000
v 0.002365000 0.000479000 0.000987000
v 0.002357000 0.000511000 0.001188000
v 0.001907000 0.000477000 0.001572000
v 0.001319000 0.000669000 0.001841000
v 0.000000000 0.000610000 0.001968000
v -0.000431000 0.000431000 0.001968000
v -0.001646000 0.000527000 0.001717000
v -0.002343000 0.000470000 0.001229000
v 0.000991000 0.000376000 0.001968000
v 0.002239000 0.000836000 0.001229000
v -0.002021000 0.000903000 0.000092000
v -0.000628000 0.000955000 -0.000013000
v -0.000391000 0.001074000 -0.000013000
v 0.000133000 0.001135000 -0.000013000
v 0.000391000 0.001074000 -0.000013000
v 0.000628000 0.000955000 -0.000013000
v 0.001964000 0.001020000 0.000092000
v 0.002197000 0.000993000 0.001174000
v 0.001754000 0.000889000 0.001572000
v -0.001692000 0.001000000 0.001572000
v -0.002253000 0.000861000 0.001188000
v -0.002257000 0.000854000 0.000987000
v 0.002199000 0.000994000 0.000987000
v -0.001728000 0.001302000 0.000043000
v 0.001013000 0.000864000 0.001919000
usemtl collision_red
f 2 3 49
f 5 2 16
f 36 2 49
f 43 42 49
f 13 12 19
f 4 2 3
f 4 5 2
f 7 5 16
f 21 36 2
f 44 43 50
f 44 43 35
f 26 7 16
f 34 10 50
f 17 2 16
f 25 26 7
f 29 10 50
f 29 44 50
f 27 26 16
f 27 43 35
f 48 43 42
f 48 25 42
f 48 25 26
f 48 27 43
f 48 27 26
f 11 34 10
f 11 13 19
f 33 32 13
f 18 13 12
f 18 32 13
f 18 12 19
f 18 32 19
f 47 36 49
f 47 21 36
f 30 34 50
f 1 17 2
f 1 17 13
f 1 2 15
f 6 7 5
f 6 25 7
f 22 3 49
f 22 37 49
f 38 37 49
f 8 9 10
f 8 11 10
f 8 27 16
f 8 9 27
f 8 11 13
f 8 17 16
f 8 17 13
f 28 29 44
f 28 44 35
f 28 29 10
f 28 9 10
f 28 27 35
f 28 9 27
f 14 33 15
f 14 33 13
f 14 1 15
f 14 1 13
f 46 47 49
f 20 47 21
f 20 2 15
f 20 21 2
f 20 33 15
f 20 46 33
f 20 46 47
f 31 32 19
f 24 25 42
f 24 6 25
f 39 38 49
f 39 42 49
f 39 40 42
f 45 31 30
f 45 31 32
f 45 30 50
f 45 46 49
f 45 33 32
f 45 46 33
f 45 43 49
f 45 43 50
f 41 40 42
f 23 24 42
f 23 41 42
f 31 30 34
f 31 11 19
f 31 11 34
f 23 4 5
f 23 4 3
f 23 6 5
f 23 22 3
f 23 39 40
f 23 22 37
f 23 38 37
f 23 24 6
f 23 39 38
f 23 41 40
