# Sampled convex hull collision mesh generated from visual mesh slice for tip_006_1_convex_hull_08
mtllib tip_006_1_convex_hull_08.mtl
o tip_006_1_convex_hull_08
v -0.000105000 0.007194000 -0.000875000
v -0.000095000 0.007174000 -0.000876000
v 0.000063000 0.007362000 -0.000465000
v -0.000095000 0.007252000 0.000846000
v -0.000113000 0.007147000 0.000852000
v -0.000117000 0.007566000 0.000828000
v 0.000063000 0.007362000 0.000733000
v -0.001119000 0.007844000 -0.000503000
v -0.001006000 0.007854000 -0.000668000
v 0.000004000 0.007661000 -0.000848000
v 0.000063000 0.007961000 -0.000465000
v -0.000975000 0.007849000 0.000681000
v -0.001058000 0.007844000 0.000586000
v -0.001173000 0.007836000 -0.000372000
v 0.000063000 0.007961000 0.000733000
v -0.001167000 0.008354000 -0.000061000
v 0.000029000 0.008260000 -0.000813000
v 0.000063000 0.008260000 -0.000165000
v 0.000063000 0.008260000 0.000433000
v -0.000095000 0.008121000 0.000795000
v -0.000112000 0.008164000 0.000793000
v -0.000117000 0.008536000 -0.000797000
usemtl collision_red
f 2 5 14
f 2 5 3
f 13 5 14
f 13 12 5
f 6 12 5
f 6 12 21
f 15 19 21
f 8 2 14
f 8 9 2
f 1 9 22
f 1 9 2
f 11 17 3
f 18 19 22
f 18 17 22
f 18 11 17
f 16 13 14
f 16 8 14
f 16 9 22
f 16 8 9
f 16 19 22
f 16 19 21
f 16 12 21
f 16 13 12
f 7 5 3
f 4 6 5
f 4 6 21
f 4 7 15
f 4 7 5
f 10 1 2
f 10 2 3
f 10 17 3
f 10 17 22
f 10 1 22
f 20 15 21
f 20 4 21
f 20 4 15
f 7 15 19
f 7 18 19
f 7 11 3
f 7 18 11
