# Sampled convex hull collision mesh generated from visual mesh slice for tip_006_2_convex_hull_09
mtllib tip_006_2_convex_hull_09.mtl
o tip_006_2_convex_hull_09
v -0.000063000 0.008559000 -0.000159000
v 0.000105000 0.008366000 -0.000807000
v 0.001167000 0.008354000 0.000035000
v 0.000116000 0.008511000 0.000773000
v 0.000095000 0.008445000 0.000777000
v -0.000063000 0.008559000 0.000439000
v -0.000063000 0.008859000 -0.000459000
v -0.000041000 0.009158000 -0.000726000
v 0.000095000 0.008949000 -0.000772000
v 0.000724000 0.008934000 -0.000760000
v 0.000775000 0.008933000 -0.000739000
v 0.000942000 0.008924000 -0.000596000
v 0.001053000 0.008912000 -0.000389000
v 0.001108000 0.008898000 -0.000155000
v 0.001108000 0.008898000 0.000117000
v 0.001067000 0.008910000 0.000321000
v 0.000971000 0.008922000 0.000529000
v 0.000809000 0.008931000 0.000695000
v 0.000699000 0.008934000 0.000741000
v -0.000003000 0.008934000 0.000748000
v -0.000054000 0.008859000 0.000752000
v -0.000063000 0.008859000 0.000739000
v 0.001116000 0.008899000 0.000006000
v 0.000635000 0.009218000 -0.000701000
v 0.000113000 0.008804000 -0.000781000
v 0.000069000 0.009649000 -0.000080000
v 0.000021000 0.009638000 -0.000159000
v -0.000019000 0.009457000 -0.000521000
v 0.000095000 0.009287000 -0.000663000
v 0.000635000 0.009267000 -0.000673000
v 0.000753000 0.009254000 -0.000650000
v 0.000931000 0.009222000 -0.000484000
v 0.000991000 0.009231000 -0.000340000
v 0.001036000 0.009226000 -0.000148000
v 0.001036000 0.009226000 0.000123000
v 0.000992000 0.009231000 0.000315000
v 0.000853000 0.009274000 0.000532000
v 0.000805000 0.009295000 0.000563000
v 0.000635000 0.009271000 0.000647000
v 0.000117000 0.009240000 0.000664000
v 0.000110000 0.009457000 0.000481000
v 0.000106000 0.009613000 0.000229000
v -0.000063000 0.009457000 0.000140000
v 0.000932000 0.009222000 0.000459000
v 0.000637000 0.009652000 -0.000020000
usemtl collision_red
f 18 5 3
f 2 5 3
f 6 2 1
f 6 2 5
f 27 28 45
f 27 28 43
f 7 2 1
f 19 18 5
f 19 39 18
f 11 2 10
f 11 2 3
f 11 12 3
f 13 12 3
f 13 14 3
f 31 11 10
f 31 11 12
f 8 29 28
f 8 7 2
f 8 7 43
f 8 28 43
f 37 36 45
f 34 13 33
f 34 13 14
f 34 33 45
f 17 18 3
f 17 37 18
f 23 14 3
f 23 34 14
f 42 27 43
f 42 41 43
f 42 41 39
f 32 31 12
f 32 13 33
f 32 13 12
f 32 33 45
f 32 31 45
f 9 8 2
f 24 8 29
f 24 31 10
f 24 9 10
f 24 9 8
f 38 39 18
f 38 37 18
f 38 37 45
f 38 42 45
f 38 42 39
f 44 37 36
f 44 17 37
f 16 44 36
f 16 44 17
f 16 17 3
f 35 23 34
f 35 36 45
f 35 34 45
f 35 16 36
f 26 27 45
f 26 42 45
f 26 42 27
f 4 19 5
f 4 20 5
f 4 20 19
f 40 19 39
f 40 20 19
f 40 41 39
f 22 6 5
f 22 41 43
f 25 2 10
f 25 9 10
f 25 9 2
f 30 29 28
f 30 24 29
f 30 24 31
f 30 28 45
f 30 31 45
f 15 35 23
f 15 35 16
f 15 23 3
f 15 16 3
f 21 20 5
f 21 22 5
f 21 40 20
f 21 40 41
f 21 22 41
f 22 7 43
f 22 6 1
f 22 7 1
