# Sampled convex hull collision mesh generated from visual mesh slice for tip_006_2_convex_hull_05
mtllib tip_006_2_convex_hull_05.mtl
o tip_006_2_convex_hull_05
v 0.000104000 0.003538000 -0.000158000
v 0.000096000 0.003551000 -0.000866000
v 0.000229000 0.003536000 -0.001393000
v 0.000356000 0.003539000 -0.001439000
v 0.001135000 0.003536000 -0.001418000
v 0.001449000 0.003524000 -0.001192000
v 0.001520000 0.003556000 -0.001037000
v 0.001614000 0.003619000 -0.000564000
v 0.001597000 0.003804000 -0.000237000
v 0.001575000 0.003928000 0.000263000
v 0.001515000 0.003958000 0.000568000
v 0.001338000 0.003967000 0.000805000
v 0.001196000 0.003970000 0.000906000
v 0.001030000 0.003986000 0.000954000
v 0.000267000 0.003980000 0.000912000
v 0.000173000 0.003944000 0.000747000
v 0.000048000 0.003527000 -0.000511000
v 0.001617000 0.003574000 -0.000398000
v 0.000048000 0.003523000 -0.000572000
v 0.000988000 0.003533000 -0.001442000
v 0.001567000 0.004010000 0.000377000
v 0.001505000 0.003990000 0.000585000
v 0.001243000 0.003988000 0.000878000
v 0.001011000 0.004109000 0.000981000
v 0.000298000 0.004167000 0.000973000
v 0.001578000 0.004000000 0.000131000
v 0.001027000 0.003988000 0.000955000
v 0.000824000 0.004449000 0.001002000
v 0.000406000 0.004194000 0.001003000
v -0.000063000 0.004668000 -0.000459000
v -0.000038000 0.004668000 -0.001022000
v 0.000779000 0.004456000 -0.001040000
v 0.001127000 0.004479000 -0.000950000
v 0.001315000 0.004480000 -0.000811000
v 0.001484000 0.004463000 -0.000553000
v 0.001529000 0.004520000 -0.000276000
v 0.001525000 0.004532000 0.000314000
v 0.001418000 0.004550000 0.000622000
v 0.001305000 0.004558000 0.000762000
v 0.001093000 0.004567000 0.000912000
v 0.000801000 0.004493000 0.001002000
v 0.000460000 0.004521000 0.001003000
v 0.000068000 0.004521000 0.001005000
v -0.000063000 0.004668000 0.000739000
v 0.001533000 0.004477000 0.000247000
v 0.000106000 0.004913000 0.000739000
usemtl collision_red
f 6 3 19
f 6 3 20
f 2 3 19
f 44 46 30
f 44 46 43
f 44 19 30
f 44 17 19
f 42 46 43
f 4 3 20
f 36 46 37
f 7 6 18
f 7 35 6
f 21 11 37
f 38 46 37
f 16 15 43
f 16 44 43
f 1 13 18
f 1 16 15
f 1 17 19
f 1 44 17
f 1 16 44
f 1 6 18
f 1 6 19
f 45 36 37
f 45 21 37
f 8 7 18
f 8 36 35
f 8 7 35
f 5 6 20
f 34 35 6
f 34 5 6
f 34 5 33
f 34 36 35
f 34 36 46
f 31 4 20
f 31 4 3
f 31 46 30
f 31 34 46
f 31 34 33
f 31 2 3
f 31 19 30
f 31 2 19
f 10 11 18
f 10 21 18
f 10 21 11
f 12 13 18
f 12 11 18
f 25 15 43
f 25 29 43
f 25 29 15
f 27 29 15
f 26 21 18
f 26 45 21
f 32 31 20
f 32 31 33
f 32 5 20
f 32 5 33
f 22 12 11
f 22 12 38
f 22 11 37
f 22 38 37
f 23 12 13
f 23 40 13
f 14 1 15
f 14 27 15
f 14 1 13
f 24 27 29
f 24 40 13
f 24 14 13
f 24 14 27
f 9 8 18
f 9 26 18
f 9 8 36
f 9 45 36
f 9 26 45
f 39 23 12
f 39 23 40
f 39 12 38
f 39 38 46
f 39 40 46
f 41 42 46
f 41 40 46
f 41 42 43
f 28 24 40
f 28 41 40
f 28 24 29
f 28 29 43
f 28 41 43
