# Sampled convex hull collision mesh generated from visual mesh slice for tip_006_2_convex_hull_03
mtllib tip_006_2_convex_hull_03.mtl
o tip_006_2_convex_hull_03
v -0.002054000 0.001264000 -0.001213000
v -0.001512000 0.001256000 -0.001597000
v 0.001545000 0.001347000 -0.001830000
v 0.001577000 0.001348000 -0.001802000
v 0.002057000 0.001216000 -0.001255000
v 0.002010000 0.001335000 -0.001012000
v 0.001903000 0.001130000 -0.000117000
v -0.000133000 0.001135000 -0.000013000
v -0.001843000 0.001246000 -0.000145000
v -0.002074000 0.001234000 -0.001012000
v 0.001777000 0.001110000 -0.000633000
v -0.001036000 0.001111000 -0.001892000
v -0.001773000 0.001632000 -0.001200000
v -0.001710000 0.001682000 -0.001244000
v -0.000966000 0.001777000 -0.001983000
v -0.000254000 0.001777000 -0.001994000
v -0.000079000 0.002036000 -0.001994000
v 0.001615000 0.002030000 -0.001710000
v 0.001651000 0.001905000 -0.000051000
v -0.001553000 0.001584000 -0.000221000
v -0.001774000 0.001633000 -0.001012000
v -0.001456000 0.001577000 -0.000059000
v -0.000914000 0.001777000 -0.001994000
v -0.001366000 0.001597000 -0.000051000
v -0.000966000 0.002087000 -0.001953000
v 0.000154000 0.002492000 -0.001992000
v 0.000177000 0.002482000 -0.001993000
v 0.001229000 0.002471000 -0.001966000
v 0.001651000 0.002299000 -0.001519000
v 0.000737000 0.002413000 -0.000375000
v -0.000432000 0.002388000 -0.000330000
v -0.000773000 0.002286000 -0.000330000
v -0.000992000 0.002044000 -0.000072000
v -0.001083000 0.002077000 -0.000297000
v -0.000578000 0.002468000 -0.000996000
v -0.001102000 0.002051000 -0.000178000
v 0.001651000 0.002468000 -0.001007000
v -0.000956000 0.002043000 -0.000058000
v 0.000119000 0.002509000 -0.001985000
v 0.000174000 0.002473000 -0.001994000
usemtl collision_red
f 9 12 10
f 9 12 8
f 37 35 39
f 25 35 39
f 3 12 5
f 11 12 5
f 11 12 8
f 7 11 8
f 7 11 5
f 14 25 35
f 4 3 5
f 28 37 39
f 24 38 8
f 19 38 8
f 19 7 8
f 6 37 5
f 6 7 5
f 6 19 37
f 6 19 7
f 26 25 39
f 26 23 25
f 26 28 39
f 16 3 12
f 16 23 12
f 16 28 3
f 15 23 25
f 15 2 12
f 15 23 12
f 1 14 25
f 1 12 10
f 1 2 12
f 1 15 25
f 1 15 2
f 32 35 31
f 18 4 3
f 18 28 3
f 18 4 5
f 22 24 38
f 22 9 8
f 22 24 8
f 30 38 31
f 30 19 38
f 30 19 37
f 30 35 31
f 30 37 35
f 40 26 23
f 34 32 35
f 29 28 37
f 29 18 28
f 29 37 5
f 29 18 5
f 27 26 28
f 27 40 28
f 27 40 26
f 17 16 28
f 17 40 28
f 36 20 9
f 36 22 9
f 36 34 32
f 21 36 34
f 21 14 35
f 21 34 35
f 21 36 20
f 21 1 10
f 21 9 10
f 21 20 9
f 33 22 38
f 33 36 22
f 33 36 32
f 33 38 31
f 33 32 31
f 13 1 14
f 13 21 14
f 13 21 1
f 17 40 23
f 17 16 23
