# Sampled convex hull collision mesh generated from visual mesh slice for tip_006_2_convex_hull_01
mtllib tip_006_2_convex_hull_01.mtl
o tip_006_2_convex_hull_01
v -0.002243000 -0.000883000 -0.001200000
v -0.001687000 -0.001009000 -0.001597000
v -0.001069000 -0.001022000 -0.001867000
v -0.000609000 -0.000869000 -0.001994000
v -0.000161000 -0.001049000 -0.001994000
v 0.000388000 -0.000986000 -0.001994000
v 0.000722000 -0.000889000 -0.001987000
v 0.001133000 -0.000951000 -0.001867000
v 0.001749000 -0.000898000 -0.001597000
v 0.002248000 -0.000865000 -0.001200000
v 0.002248000 -0.000865000 -0.001012000
v 0.002049000 -0.000837000 -0.000117000
v 0.000735000 -0.000876000 -0.000013000
v 0.000264000 -0.001112000 -0.000013000
v 0.000000000 -0.001143000 -0.000013000
v -0.000513000 -0.001021000 -0.000013000
v -0.000735000 -0.000876000 -0.000013000
v -0.001998000 -0.000952000 -0.000117000
v -0.002257000 -0.000853000 -0.001005000
v -0.002002000 -0.001299000 -0.001255000
v -0.002355000 -0.000515000 -0.001200000
v -0.001869000 -0.000609000 -0.001597000
v -0.001165000 -0.000380000 -0.001966000
v -0.000705000 -0.000794000 -0.001994000
v 0.000668000 -0.000823000 -0.001994000
v 0.001165000 -0.000386000 -0.001966000
v 0.001838000 -0.000697000 -0.001597000
v 0.002366000 -0.000476000 -0.001200000
v 0.002356000 -0.000476000 -0.000984000
v 0.002132000 -0.000596000 -0.000117000
v 0.001050000 -0.000453000 -0.000013000
v -0.001050000 -0.000453000 -0.000013000
v -0.002163000 -0.000470000 -0.000117000
v -0.002330000 -0.000592000 -0.000984000
v -0.000983000 -0.000399000 -0.001994000
v -0.002412000 -0.000029000 -0.001213000
v -0.001728000 0.000037000 -0.001743000
v -0.001226000 -0.000057000 -0.001966000
v -0.000610000 0.000000000 -0.001994000
v 0.000610000 0.000000000 -0.001994000
v 0.001310000 -0.000000000 -0.001936000
v 0.001947000 -0.000271000 -0.001597000
v 0.002411000 0.000065000 -0.001213000
v 0.002387000 0.000060000 -0.000968000
v 0.002222000 -0.000092000 -0.000145000
v 0.001141000 0.000066000 -0.000013000
v -0.001141000 0.000066000 -0.000013000
v -0.002224000 0.000038000 -0.000145000
v -0.002387000 -0.000059000 -0.000968000
v -0.002413000 -0.000029000 -0.001200000
v 0.002412000 0.000061000 -0.001005000
v 0.001433000 -0.000366000 -0.001867000
v -0.002092000 0.000094000 -0.000633000
v -0.001061000 -0.000044000 -0.001994000
usemtl collision_red
f 19 18 20
f 15 18 20
f 53 48 47
f 53 48 50
f 44 45 51
f 46 44 45
f 46 44 51
f 46 53 47
f 33 48 47
f 33 19 18
f 43 28 51
f 43 37 40
f 43 37 53
f 43 46 51
f 43 46 53
f 29 28 11
f 29 45 51
f 29 28 51
f 54 37 38
f 1 19 20
f 1 21 19
f 14 12 11
f 14 12 13
f 32 17 18
f 32 33 18
f 32 33 47
f 16 15 18
f 16 17 18
f 31 12 13
f 34 21 19
f 34 33 19
f 34 21 50
f 36 53 50
f 36 37 53
f 36 21 50
f 30 29 45
f 30 46 45
f 30 12 11
f 30 29 11
f 30 31 46
f 30 31 12
f 5 8 20
f 5 8 6
f 5 3 20
f 10 15 20
f 10 8 20
f 10 14 15
f 10 14 11
f 10 28 11
f 2 3 20
f 39 37 40
f 39 54 37
f 49 48 50
f 49 34 50
f 49 33 48
f 49 34 33
f 25 26 40
f 41 43 40
f 41 26 40
f 22 1 21
f 22 1 20
f 22 2 20
f 22 36 21
f 22 36 37
f 4 5 3
f 4 24 3
f 23 24 3
f 23 54 38
f 23 37 38
f 23 22 37
f 23 2 3
f 23 22 2
f 7 25 6
f 7 8 6
f 7 26 8
f 7 25 26
f 42 43 28
f 42 41 43
f 35 23 54
f 35 23 24
f 52 41 26
f 52 42 41
f 52 26 8
f 9 52 8
f 9 10 8
f 27 52 42
f 27 9 52
f 27 9 10
f 27 10 28
f 27 42 28
f 31 16 15
f 31 14 13
f 31 32 47
f 31 46 47
f 31 14 15
f 31 32 17
f 31 16 17
f 35 5 6
f 35 4 5
f 35 39 40
f 35 39 54
f 35 25 40
f 35 25 6
f 35 4 24
