# Sampled convex hull collision mesh generated from visual mesh slice for tip_006_2_convex_hull_04
mtllib tip_006_2_convex_hull_04.mtl
o tip_006_2_convex_hull_04
v -0.001041000 0.002346000 -0.001753000
v -0.000914000 0.002351000 -0.001885000
v -0.000254000 0.002352000 -0.001886000
v 0.000100000 0.002393000 -0.001992000
v 0.001229000 0.002471000 -0.001966000
v 0.001540000 0.002664000 -0.001781000
v 0.001593000 0.002679000 -0.001699000
v 0.001651000 0.002399000 -0.001016000
v 0.001636000 0.002751000 -0.000613000
v 0.001603000 0.002777000 -0.000486000
v 0.001329000 0.002754000 -0.000159000
v 0.001021000 0.002656000 -0.000062000
v -0.001041000 0.002319000 -0.000163000
v 0.001651000 0.002739000 -0.000755000
v -0.001040000 0.002318000 -0.000162000
v 0.000174000 0.002473000 -0.001994000
v -0.001040000 0.003139000 -0.001020000
v -0.001041000 0.002822000 -0.001435000
v -0.001015000 0.002819000 -0.001545000
v 0.000270000 0.002827000 -0.001936000
v 0.000322000 0.003216000 -0.001733000
v 0.001436000 0.002794000 -0.001847000
v 0.001494000 0.002835000 -0.001775000
v 0.001632000 0.003040000 -0.001255000
v 0.001641000 0.003190000 -0.000520000
v -0.001015000 0.002921000 -0.000100000
v -0.001041000 0.002921000 -0.000178000
v 0.001651000 0.003107000 -0.000645000
v -0.001041000 0.003250000 -0.000537000
v 0.001140000 0.002791000 -0.001947000
v -0.001015000 0.003265000 -0.000849000
v 0.000130000 0.003307000 -0.001512000
v 0.000328000 0.003281000 -0.001682000
v 0.001219000 0.003311000 -0.001615000
v 0.001397000 0.003261000 -0.001535000
v 0.001585000 0.003314000 -0.001135000
v 0.001640000 0.003346000 -0.000761000
v 0.001587000 0.003709000 -0.000148000
v 0.001452000 0.003694000 0.000228000
v 0.001285000 0.003716000 0.000653000
v 0.000288000 0.003712000 0.000603000
v 0.000130000 0.003690000 0.000029000
v -0.001040000 0.003260000 -0.000414000
v 0.001642000 0.003324000 -0.000573000
v 0.001039000 0.003258000 -0.001702000
usemtl collision_red
f 12 15 8
f 12 15 40
f 41 15 40
f 41 38 40
f 11 12 8
f 11 12 40
f 3 5 8
f 3 15 8
f 26 41 15
f 26 13 27
f 26 13 15
f 42 41 38
f 1 3 15
f 1 13 15
f 25 9 38
f 39 38 40
f 10 11 40
f 10 39 40
f 10 11 8
f 10 9 8
f 10 9 38
f 10 39 38
f 6 5 8
f 6 7 8
f 43 29 27
f 43 26 27
f 43 26 41
f 43 42 41
f 33 42 38
f 4 3 5
f 14 9 8
f 14 25 9
f 34 35 38
f 34 33 45
f 34 33 38
f 34 30 45
f 23 6 7
f 31 43 29
f 31 43 42
f 21 33 45
f 21 30 45
f 21 30 20
f 2 21 20
f 2 1 3
f 2 4 3
f 44 25 38
f 44 37 38
f 36 35 38
f 36 37 38
f 36 23 7
f 36 23 35
f 16 30 20
f 16 2 20
f 16 2 4
f 16 4 5
f 16 30 5
f 22 6 5
f 22 23 6
f 22 30 5
f 22 34 30
f 22 34 35
f 22 23 35
f 32 33 42
f 32 31 42
f 32 31 33
f 28 44 37
f 28 14 8
f 28 14 25
f 28 44 25
f 24 36 7
f 24 36 37
f 24 7 8
f 24 28 8
f 24 28 37
f 17 18 29
f 17 31 29
f 19 18 1
f 19 2 1
f 19 21 33
f 19 2 21
f 19 17 18
f 19 31 33
f 19 17 31
f 18 13 27
f 18 1 13
f 18 29 27
