# Sampled convex hull collision mesh generated from visual mesh slice for tip_006_2_convex_hull_07
mtllib tip_006_2_convex_hull_07.mtl
o tip_006_2_convex_hull_07
v -0.000063000 0.006165000 -0.000159000
v 0.000095000 0.005977000 -0.000946000
v 0.000105000 0.005995000 -0.000945000
v 0.000113000 0.005946000 0.000922000
v 0.000095000 0.006064000 0.000915000
v -0.000063000 0.006165000 0.000439000
v 0.000095000 0.005942000 0.000439000
v 0.000095000 0.006398000 0.000896000
v -0.000063000 0.006763000 -0.000758000
v 0.000036000 0.006464000 -0.000917000
v 0.000821000 0.006752000 -0.000886000
v 0.001142000 0.006740000 -0.000676000
v 0.001219000 0.006733000 -0.000559000
v 0.001311000 0.006717000 -0.000283000
v 0.001308000 0.006731000 0.000269000
v 0.001208000 0.006747000 0.000542000
v 0.001077000 0.006757000 0.000706000
v 0.000788000 0.006766000 0.000862000
v 0.000045000 0.006464000 0.000892000
v -0.000063000 0.006464000 0.000739000
v 0.001322000 0.006709000 -0.000140000
v -0.000063000 0.007063000 -0.000459000
v 0.000095000 0.007011000 -0.000885000
v 0.000105000 0.006870000 -0.000894000
v 0.000116000 0.006880000 0.000868000
v 0.000095000 0.006964000 0.000863000
v -0.000063000 0.007063000 0.000739000
v 0.000114000 0.007333000 0.000739000
usemtl collision_red
f 7 4 21
f 2 7 1
f 2 7 21
f 12 23 28
f 26 27 28
f 22 23 28
f 22 27 28
f 15 4 21
f 13 12 28
f 13 12 2
f 11 12 23
f 11 12 2
f 6 20 4
f 6 7 1
f 6 7 4
f 19 26 27
f 19 20 27
f 18 17 4
f 18 17 28
f 18 26 28
f 9 22 23
f 9 2 1
f 16 17 28
f 16 15 28
f 16 17 4
f 16 15 4
f 14 13 28
f 14 15 21
f 14 15 28
f 14 2 21
f 14 13 2
f 24 11 23
f 8 19 4
f 5 20 4
f 5 19 4
f 5 19 20
f 10 9 23
f 10 9 2
f 10 24 23
f 10 24 2
f 3 11 2
f 3 24 2
f 3 24 11
f 25 18 26
f 25 19 26
f 25 8 19
f 25 18 4
f 25 8 4
f 9 20 27
f 9 6 1
f 9 22 27
f 9 6 20
