# Sampled convex hull collision mesh generated from visual mesh slice for tip_006_2_convex_hull_00
mtllib tip_006_2_convex_hull_00.mtl
o tip_006_2_convex_hull_00
v -0.001272000 -0.002048000 -0.001012000
v -0.001317000 -0.001994000 -0.001255000
v -0.000771000 -0.002050000 -0.001431000
v -0.000296000 -0.002170000 -0.001431000
v -0.000052000 -0.002189000 -0.001431000
v 0.000193000 -0.002181000 -0.001431000
v 0.000436000 -0.002146000 -0.001431000
v 0.000902000 -0.001996000 -0.001431000
v 0.001320000 -0.002002000 -0.001244000
v 0.001334000 -0.002010000 -0.001012000
v 0.000815000 -0.002072000 -0.000204000
v 0.000786000 -0.001998000 -0.000059000
v 0.000368000 -0.002069000 -0.000051000
v 0.000198000 -0.002092000 -0.000051000
v -0.000183000 -0.002093000 -0.000051000
v -0.000483000 -0.002046000 -0.000051000
v -0.000671000 -0.002039000 -0.000059000
v -0.000922000 -0.001993000 -0.000093000
v 0.001334000 -0.002010000 -0.001005000
v 0.000047000 -0.002413000 -0.001200000
v -0.000657000 -0.001996000 -0.000051000
v -0.001849000 -0.001551000 -0.001012000
v -0.001661000 -0.001713000 -0.001255000
v -0.001084000 -0.001640000 -0.001597000
v -0.000608000 -0.001618000 -0.001743000
v -0.000234000 -0.001713000 -0.001743000
v 0.000153000 -0.001722000 -0.001743000
v 0.000712000 -0.001575000 -0.001743000
v 0.001187000 -0.001567000 -0.001597000
v 0.001647000 -0.001731000 -0.001255000
v 0.001741000 -0.001662000 -0.001230000
v 0.001461000 -0.001662000 -0.000117000
v 0.000858000 -0.001919000 -0.000051000
v -0.000902000 -0.001948000 -0.000059000
v -0.001556000 -0.001574000 -0.000117000
v 0.001748000 -0.001663000 -0.001005000
v -0.001528000 -0.001546000 -0.000073000
v -0.001388000 -0.001578000 -0.000051000
v -0.002072000 -0.001229000 -0.001200000
v -0.001564000 -0.001191000 -0.001597000
v -0.001108000 -0.001327000 -0.001743000
v -0.000672000 -0.001317000 -0.001867000
v -0.000274000 -0.001112000 -0.001987000
v 0.000251000 -0.001118000 -0.001987000
v 0.000505000 -0.001117000 -0.001966000
v 0.001044000 -0.001378000 -0.001743000
v 0.001506000 -0.001264000 -0.001597000
v 0.002084000 -0.001214000 -0.001200000
v 0.001841000 -0.001163000 -0.000861000
v 0.001803000 -0.001284000 -0.000117000
v 0.000264000 -0.001112000 -0.000013000
v -0.000264000 -0.001112000 -0.000013000
v -0.001875000 -0.001176000 -0.000117000
v -0.001841000 -0.001163000 -0.000861000
v -0.002072000 -0.001229000 -0.001012000
v 0.002084000 -0.001214000 -0.001012000
v 0.001324000 -0.001111000 -0.001743000
usemtl collision_red
f 1 18 20
f 52 38 53
f 57 49 48
f 57 49 51
f 57 52 51
f 57 52 43
f 50 33 51
f 50 49 51
f 2 1 20
f 2 3 20
f 4 3 20
f 35 1 18
f 41 40 43
f 54 52 43
f 54 52 53
f 54 40 43
f 54 40 39
f 54 55 39
f 54 55 53
f 47 57 48
f 15 14 20
f 15 52 51
f 15 14 51
f 13 33 51
f 13 14 51
f 13 12 33
f 45 57 43
f 23 2 1
f 23 40 39
f 7 9 20
f 37 38 53
f 37 35 53
f 37 35 18
f 22 55 53
f 22 35 53
f 22 55 39
f 22 23 39
f 22 35 1
f 22 23 1
f 32 36 19
f 32 36 50
f 32 50 33
f 32 12 33
f 10 19 20
f 10 9 20
f 10 36 19
f 30 29 47
f 30 29 9
f 17 18 20
f 17 15 20
f 44 45 43
f 46 45 28
f 46 45 57
f 46 29 28
f 46 47 57
f 46 29 47
f 56 36 48
f 56 36 50
f 56 49 48
f 56 50 49
f 27 7 28
f 27 45 28
f 27 44 45
f 27 44 43
f 26 4 3
f 26 25 3
f 26 27 43
f 42 41 43
f 42 25 41
f 42 26 43
f 42 26 25
f 24 25 3
f 24 25 41
f 24 2 3
f 24 23 2
f 24 41 40
f 24 23 40
f 11 32 19
f 11 32 12
f 11 19 20
f 11 13 12
f 11 14 20
f 11 13 14
f 8 7 9
f 8 29 9
f 8 7 28
f 8 29 28
f 31 47 48
f 31 30 47
f 31 36 48
f 31 10 36
f 31 10 9
f 31 30 9
f 21 52 38
f 6 27 7
f 6 7 20
f 34 21 38
f 34 21 17
f 34 17 18
f 34 37 18
f 34 37 38
f 16 17 15
f 16 21 17
f 16 15 52
f 16 21 52
f 5 6 27
f 5 26 4
f 5 26 27
f 5 4 20
f 5 6 20
