# Sampled convex hull collision mesh generated from visual mesh slice for tip_006_1_convex_hull_00
mtllib tip_006_1_convex_hull_00.mtl
o tip_006_1_convex_hull_00
v -0.000815000 -0.002072000 0.000179000
v -0.000786000 -0.001998000 0.000034000
v -0.000368000 -0.002069000 0.000025000
v -0.000198000 -0.002092000 0.000025000
v 0.000183000 -0.002093000 0.000025000
v 0.000483000 -0.002046000 0.000025000
v 0.000671000 -0.002039000 0.000034000
v 0.000922000 -0.001993000 0.000067000
v 0.001272000 -0.002048000 0.000987000
v 0.001317000 -0.001994000 0.001229000
v 0.000771000 -0.002050000 0.001406000
v 0.000296000 -0.002170000 0.001406000
v 0.000052000 -0.002189000 0.001406000
v -0.000193000 -0.002181000 0.001406000
v -0.000436000 -0.002146000 0.001406000
v -0.000902000 -0.001996000 0.001406000
v -0.001320000 -0.002002000 0.001219000
v -0.001334000 -0.002010000 0.000987000
v -0.000047000 -0.002413000 0.001174000
v -0.000699000 -0.001982000 0.000025000
v -0.001461000 -0.001662000 0.000092000
v -0.000858000 -0.001919000 0.000025000
v 0.000902000 -0.001948000 0.000034000
v 0.001556000 -0.001574000 0.000092000
v 0.001849000 -0.001551000 0.000987000
v 0.001661000 -0.001713000 0.001229000
v 0.001084000 -0.001640000 0.001572000
v 0.000608000 -0.001618000 0.001717000
v 0.000234000 -0.001713000 0.001717000
v -0.000153000 -0.001722000 0.001717000
v -0.000712000 -0.001575000 0.001717000
v -0.001187000 -0.001567000 0.001572000
v -0.001647000 -0.001731000 0.001229000
v -0.001741000 -0.001662000 0.001204000
v -0.001748000 -0.001663000 0.000987000
v 0.001528000 -0.001546000 0.000048000
v -0.001387000 -0.001577000 0.000025000
v -0.001841000 -0.001163000 0.000835000
v -0.001803000 -0.001284000 0.000092000
v -0.000264000 -0.001112000 -0.000013000
v 0.000264000 -0.001112000 -0.000013000
v 0.001875000 -0.001176000 0.000092000
v 0.001841000 -0.001163000 0.000835000
v 0.002072000 -0.001229000 0.001174000
v 0.001564000 -0.001191000 0.001572000
v 0.001108000 -0.001327000 0.001717000
v 0.000672000 -0.001317000 0.001841000
v 0.000274000 -0.001112000 0.001961000
v -0.000251000 -0.001118000 0.001961000
v -0.000505000 -0.001117000 0.001941000
v -0.001044000 -0.001378000 0.001717000
v -0.001506000 -0.001264000 0.001572000
v -0.002084000 -0.001214000 0.001174000
v 0.001852000 -0.001545000 0.001174000
v -0.001324000 -0.001111000 0.001717000
usemtl collision_red
f 25 42 44
f 41 55 40
f 41 55 48
f 41 42 36
f 41 5 40
f 38 55 53
f 38 55 40
f 38 39 53
f 38 39 40
f 50 55 48
f 52 55 53
f 17 18 19
f 37 39 40
f 37 39 21
f 35 18 21
f 35 39 21
f 35 39 53
f 8 9 19
f 1 18 19
f 1 18 21
f 10 9 19
f 10 11 19
f 30 50 31
f 43 41 48
f 43 41 42
f 43 42 44
f 51 50 31
f 51 50 55
f 51 52 55
f 7 5 19
f 7 8 19
f 4 5 19
f 4 1 19
f 4 5 40
f 24 8 9
f 24 25 9
f 24 8 36
f 24 25 42
f 24 42 36
f 54 25 44
f 12 11 19
f 49 50 48
f 49 30 48
f 49 30 50
f 32 51 52
f 32 33 52
f 32 33 17
f 32 16 17
f 32 51 31
f 32 16 31
f 34 52 53
f 34 33 52
f 34 35 53
f 34 35 18
f 34 17 18
f 34 33 17
f 23 8 36
f 23 7 8
f 23 41 36
f 2 1 21
f 2 37 21
f 27 10 11
f 27 28 11
f 27 28 46
f 47 46 48
f 47 28 46
f 29 30 48
f 29 12 11
f 29 28 11
f 29 47 48
f 29 47 28
f 6 41 5
f 6 23 41
f 6 7 5
f 6 23 7
f 3 4 1
f 3 2 1
f 3 4 40
f 45 27 46
f 45 54 44
f 45 46 48
f 45 43 44
f 45 43 48
f 13 14 30
f 13 29 30
f 13 29 12
f 13 12 19
f 13 14 19
f 15 14 30
f 15 30 31
f 15 16 31
f 15 14 19
f 15 17 19
f 15 16 17
f 22 2 37
f 22 37 40
f 26 27 10
f 26 45 27
f 26 45 54
f 26 10 9
f 26 25 9
f 26 54 25
f 20 3 2
f 20 22 2
f 20 3 40
f 20 22 40
