# Sampled convex hull collision mesh generated from visual mesh slice for tip_006_1_convex_hull_01
mtllib tip_006_1_convex_hull_01.mtl
o tip_006_1_convex_hull_01
v -0.002248000 -0.000865000 0.000987000
v -0.002049000 -0.000837000 0.000092000
v -0.000735000 -0.000876000 -0.000013000
v -0.000264000 -0.001112000 -0.000013000
v 0.000000000 -0.001143000 -0.000013000
v 0.000513000 -0.001021000 -0.000013000
v 0.000735000 -0.000876000 -0.000013000
v 0.001998000 -0.000952000 0.000092000
v 0.002257000 -0.000853000 0.000979000
v 0.002243000 -0.000883000 0.001174000
v 0.001687000 -0.001009000 0.001572000
v 0.001069000 -0.001022000 0.001841000
v 0.000609000 -0.000869000 0.001968000
v 0.000161000 -0.001049000 0.001968000
v -0.000388000 -0.000986000 0.001968000
v -0.000722000 -0.000889000 0.001961000
v -0.001133000 -0.000951000 0.001841000
v -0.001749000 -0.000898000 0.001572000
v -0.002248000 -0.000865000 0.001174000
v 0.002257000 -0.000853000 0.000987000
v 0.002002000 -0.001299000 0.001229000
v -0.000644000 -0.000844000 0.001968000
v -0.002356000 -0.000476000 0.000958000
v -0.002132000 -0.000596000 0.000092000
v -0.001050000 -0.000453000 -0.000013000
v 0.001050000 -0.000453000 -0.000013000
v 0.002174000 -0.000472000 0.000119000
v 0.002330000 -0.000592000 0.000958000
v 0.002355000 -0.000515000 0.001174000
v 0.001869000 -0.000609000 0.001572000
v 0.001165000 -0.000380000 0.001941000
v 0.000705000 -0.000794000 0.001968000
v -0.000668000 -0.000823000 0.001968000
v -0.001165000 -0.000386000 0.001941000
v -0.001838000 -0.000697000 0.001572000
v -0.002366000 -0.000476000 0.001174000
v -0.000901000 -0.000834000 0.001941000
v -0.000965000 -0.000439000 0.001968000
v -0.002387000 0.000060000 0.000943000
v -0.002222000 -0.000092000 0.000119000
v -0.001141000 0.000066000 -0.000013000
v 0.001141000 0.000066000 -0.000013000
v 0.002224000 0.000038000 0.000119000
v 0.002387000 -0.000059000 0.000943000
v 0.002412000 -0.000029000 0.001188000
v 0.001728000 0.000037000 0.001717000
v 0.001226000 0.000026000 0.001941000
v 0.000610000 -0.000000000 0.001968000
v -0.001310000 0.000000000 0.001911000
v -0.001947000 -0.000271000 0.001572000
v -0.002411000 0.000065000 0.001188000
v -0.002412000 0.000065000 0.001174000
v 0.002413000 -0.000029000 0.001174000
v -0.001433000 -0.000366000 0.001841000
v -0.002092000 0.000094000 0.000612000
v -0.001062000 0.000000000 0.001968000
usemtl collision_red
f 9 8 21
f 43 42 8
f 5 19 21
f 5 8 21
f 5 6 8
f 26 42 8
f 46 43 42
f 55 51 52
f 55 46 42
f 41 55 42
f 41 55 40
f 24 41 40
f 24 23 40
f 27 9 8
f 27 43 8
f 10 9 21
f 7 6 8
f 7 26 8
f 47 46 31
f 47 55 51
f 47 55 46
f 45 43 53
f 45 46 43
f 45 29 53
f 39 23 52
f 39 23 40
f 39 55 52
f 39 55 40
f 28 29 9
f 28 27 9
f 28 29 53
f 20 29 9
f 20 10 9
f 20 10 29
f 30 10 29
f 30 45 29
f 30 45 46
f 30 10 21
f 30 46 31
f 32 12 31
f 32 12 13
f 32 47 31
f 32 47 48
f 56 47 48
f 56 47 51
f 56 49 51
f 50 49 51
f 17 19 21
f 4 2 3
f 4 5 19
f 25 2 3
f 25 24 41
f 25 2 24
f 44 43 53
f 44 28 53
f 44 27 43
f 44 28 27
f 11 12 21
f 11 30 21
f 11 12 31
f 11 30 31
f 36 50 51
f 36 51 52
f 36 23 52
f 18 17 19
f 1 4 19
f 1 4 2
f 1 36 19
f 1 36 23
f 1 24 23
f 1 2 24
f 35 18 19
f 35 36 19
f 35 36 50
f 15 16 17
f 34 56 49
f 38 34 56
f 14 12 13
f 14 12 21
f 14 17 21
f 14 15 17
f 37 16 17
f 37 34 17
f 37 38 16
f 37 38 34
f 54 18 17
f 54 34 17
f 54 35 18
f 54 35 50
f 54 50 49
f 54 34 49
f 33 38 16
f 22 15 16
f 22 33 16
f 25 7 6
f 25 26 42
f 25 5 6
f 25 4 3
f 25 41 42
f 25 7 26
f 25 4 5
f 22 32 13
f 22 32 48
f 22 56 48
f 22 38 56
f 22 14 13
f 22 14 15
f 22 33 38
