# Sampled convex hull collision mesh generated from visual mesh slice for tip_006_1_convex_hull_07
mtllib tip_006_1_convex_hull_07.mtl
o tip_006_1_convex_hull_07
v -0.000113000 0.005946000 -0.000948000
v -0.000095000 0.006064000 -0.000941000
v 0.000063000 0.006165000 -0.000465000
v -0.000095000 0.005977000 0.000920000
v -0.000105000 0.005995000 0.000919000
v 0.000063000 0.006165000 0.000733000
v -0.000095000 0.005942000 0.000733000
v -0.001308000 0.006731000 -0.000294000
v -0.001208000 0.006747000 -0.000568000
v -0.001077000 0.006757000 -0.000732000
v -0.000788000 0.006766000 -0.000887000
v -0.000045000 0.006464000 -0.000917000
v 0.000063000 0.006464000 -0.000764000
v 0.000063000 0.006763000 0.000733000
v -0.000036000 0.006464000 0.000892000
v -0.000821000 0.006752000 0.000861000
v -0.001142000 0.006740000 0.000650000
v -0.001219000 0.006733000 0.000534000
v -0.001311000 0.006717000 0.000257000
v -0.001322000 0.006709000 0.000115000
v -0.000116000 0.006880000 -0.000893000
v -0.000095000 0.006964000 -0.000888000
v 0.000063000 0.007063000 -0.000165000
v 0.000063000 0.007063000 0.000433000
v -0.000095000 0.007011000 0.000860000
v -0.000117000 0.007063000 0.000733000
v -0.000114000 0.007333000 -0.000165000
usemtl collision_red
f 22 11 27
f 24 26 27
f 24 26 25
f 10 11 27
f 10 9 27
f 8 9 27
f 1 10 11
f 1 10 9
f 1 7 3
f 1 8 9
f 1 7 20
f 1 8 20
f 17 16 4
f 17 26 27
f 17 26 25
f 17 16 25
f 5 16 4
f 5 16 25
f 23 22 27
f 23 24 27
f 14 24 25
f 21 22 11
f 21 1 11
f 21 1 22
f 18 17 4
f 18 17 27
f 15 14 25
f 15 5 4
f 15 5 25
f 6 7 4
f 6 15 4
f 6 15 14
f 2 1 22
f 2 12 22
f 13 2 12
f 13 23 22
f 13 12 22
f 13 1 3
f 13 2 1
f 19 18 4
f 19 7 20
f 19 7 4
f 19 18 27
f 19 8 20
f 19 8 27
f 6 7 3
f 13 23 24
f 13 6 14
f 13 6 3
f 13 14 24
