# Sampled convex hull collision mesh generated from visual mesh slice for tip_006_2_convex_hull_02
mtllib tip_006_2_convex_hull_02.mtl
o tip_006_2_convex_hull_02
v -0.002412000 -0.000029000 -0.001213000
v -0.001966000 0.000042000 -0.001597000
v -0.001226000 -0.000057000 -0.001966000
v 0.000610000 0.000000000 -0.001994000
v 0.001310000 -0.000000000 -0.001936000
v 0.001965000 -0.000052000 -0.001597000
v 0.002411000 0.000065000 -0.001213000
v 0.002219000 -0.000092000 -0.000221000
v 0.002222000 -0.000092000 -0.000145000
v 0.001141000 0.000066000 -0.000013000
v 0.000648000 -0.000000000 -0.000013000
v -0.000648000 0.000000000 -0.000013000
v -0.001141000 0.000066000 -0.000013000
v -0.002224000 0.000038000 -0.000145000
v -0.002413000 -0.000029000 -0.001200000
v 0.002412000 0.000061000 -0.001005000
v 0.002227000 -0.000093000 -0.000174000
v 0.001596000 0.000360000 -0.001792000
v -0.001061000 -0.000044000 -0.001994000
v -0.002357000 0.000511000 -0.001213000
v -0.001907000 0.000477000 -0.001597000
v -0.001319000 0.000669000 -0.001867000
v 0.000000000 0.000610000 -0.001994000
v 0.000431000 0.000431000 -0.001994000
v 0.001646000 0.000527000 -0.001743000
v 0.002343000 0.000470000 -0.001255000
v 0.002338000 0.000596000 -0.001005000
v 0.002185000 0.000419000 -0.000145000
v 0.000990000 0.000572000 -0.000013000
v -0.000831000 0.000784000 -0.000013000
v -0.000990000 0.000572000 -0.000013000
v -0.002146000 0.000543000 -0.000117000
v -0.002365000 0.000479000 -0.001012000
v -0.000991000 0.000376000 -0.001994000
v -0.002239000 0.000836000 -0.001255000
v -0.002197000 0.000993000 -0.001200000
v -0.001754000 0.000889000 -0.001597000
v -0.001062000 0.000882000 -0.001909000
v 0.001692000 0.001000000 -0.001597000
v 0.002253000 0.000861000 -0.001213000
v 0.002021000 0.000903000 -0.000117000
v 0.000628000 0.000955000 -0.000013000
v 0.000391000 0.001074000 -0.000013000
v -0.000133000 0.001135000 -0.000013000
v -0.000391000 0.001074000 -0.000013000
v -0.000628000 0.000955000 -0.000013000
v -0.001964000 0.001020000 -0.000117000
v -0.002199000 0.000993000 -0.001012000
v 0.002257000 0.000854000 -0.001012000
v 0.001728000 0.001302000 -0.000068000
v -0.001013000 0.000867000 -0.001944000
usemtl collision_red
f 36 47 50
f 3 17 15
f 3 34 51
f 8 3 17
f 40 39 50
f 6 8 3
f 14 12 15
f 38 39 50
f 38 36 50
f 38 39 51
f 33 14 15
f 19 3 34
f 20 33 15
f 20 36 35
f 21 20 35
f 5 24 4
f 5 6 3
f 5 19 4
f 5 19 3
f 7 6 8
f 7 17 16
f 7 8 17
f 26 40 39
f 26 7 6
f 23 34 51
f 23 39 51
f 23 24 39
f 9 11 12
f 9 17 15
f 9 12 15
f 9 11 10
f 9 10 50
f 9 17 16
f 9 28 16
f 9 41 50
f 9 41 28
f 32 33 14
f 37 36 35
f 37 38 36
f 37 38 51
f 37 21 35
f 48 36 47
f 48 32 47
f 48 32 33
f 48 20 36
f 48 20 33
f 22 3 51
f 22 21 3
f 22 37 51
f 22 37 21
f 2 21 3
f 2 21 20
f 49 41 28
f 49 40 50
f 49 41 50
f 25 26 39
f 25 26 6
f 25 24 39
f 25 5 24
f 13 14 12
f 13 32 14
f 29 10 50
f 29 42 50
f 43 42 50
f 1 20 15
f 1 2 20
f 1 3 15
f 1 2 3
f 27 28 16
f 27 49 28
f 27 7 16
f 27 26 7
f 27 26 40
f 27 49 40
f 18 5 6
f 18 25 6
f 18 25 5
f 31 32 47
f 31 13 32
f 44 43 50
f 44 47 50
f 44 45 47
f 46 45 47
f 30 31 47
f 30 46 47
f 23 19 4
f 23 24 4
f 23 19 34
f 30 11 12
f 30 11 10
f 30 13 12
f 30 29 10
f 30 44 45
f 30 29 42
f 30 43 42
f 30 31 13
f 30 44 43
f 30 46 45
