# Sampled convex hull collision mesh generated from visual mesh slice for tip_006_1_convex_hull_03
mtllib tip_006_1_convex_hull_03.mtl
o tip_006_1_convex_hull_03
v -0.001903000 0.001130000 0.000092000
v 0.000133000 0.001135000 -0.000013000
v 0.001843000 0.001246000 0.000119000
v 0.002054000 0.001264000 0.001188000
v 0.001512000 0.001256000 0.001572000
v -0.001545000 0.001347000 0.001805000
v -0.001577000 0.001348000 0.001777000
v -0.002057000 0.001216000 0.001229000
v -0.002010000 0.001335000 0.000987000
v 0.002074000 0.001234000 0.000987000
v -0.001777000 0.001110000 0.000607000
v -0.000133000 0.001135000 -0.000013000
v 0.001036000 0.001111000 0.001866000
v -0.001651000 0.001905000 0.000025000
v 0.001553000 0.001584000 0.000196000
v 0.001773000 0.001632000 0.001174000
v 0.001710000 0.001682000 0.001219000
v 0.000966000 0.001777000 0.001958000
v 0.000254000 0.001777000 0.001968000
v -0.001615000 0.002030000 0.001685000
v 0.001774000 0.001633000 0.000987000
v -0.001651000 0.002468000 0.000982000
v -0.000737000 0.002413000 0.000375000
v 0.000432000 0.002399000 0.000305000
v 0.000773000 0.002286000 0.000305000
v 0.000992000 0.002044000 0.000046000
v 0.001083000 0.002077000 0.000272000
v 0.000578000 0.002468000 0.000971000
v 0.000966000 0.002087000 0.001927000
v -0.000154000 0.002492000 0.001966000
v -0.000177000 0.002482000 0.001968000
v -0.001229000 0.002471000 0.001940000
v -0.001651000 0.002299000 0.001493000
v -0.000119000 0.002509000 0.001959000
v 0.000956000 0.002043000 0.000032000
v -0.000088000 0.002310000 0.001969000
usemtl collision_red
f 6 13 8
f 9 1 8
f 9 1 14
f 12 14 2
f 12 1 2
f 12 1 14
f 11 13 2
f 11 1 2
f 11 13 8
f 11 1 8
f 22 9 14
f 22 33 8
f 22 9 8
f 19 6 13
f 7 6 8
f 20 7 6
f 20 33 8
f 20 7 8
f 28 29 34
f 28 22 34
f 3 13 10
f 3 13 2
f 35 14 2
f 35 3 2
f 35 3 26
f 35 24 14
f 35 26 24
f 32 22 34
f 32 22 33
f 32 20 33
f 32 20 6
f 32 19 6
f 23 24 14
f 23 22 14
f 23 28 24
f 23 28 22
f 18 19 13
f 18 5 13
f 25 26 24
f 25 28 24
f 15 3 26
f 30 29 34
f 30 32 34
f 30 31 32
f 30 18 29
f 30 18 31
f 36 18 19
f 36 18 31
f 36 32 19
f 36 31 32
f 4 13 10
f 4 5 13
f 4 18 29
f 4 18 5
f 21 4 10
f 21 3 10
f 21 15 3
f 17 28 29
f 17 21 28
f 17 4 29
f 27 15 26
f 27 21 15
f 27 25 26
f 27 25 28
f 27 21 28
f 16 21 4
f 16 17 4
f 16 17 21
