# Sampled convex hull collision mesh generated from visual mesh slice for tip_006_1_convex_hull_05
mtllib tip_006_1_convex_hull_05.mtl
o tip_006_1_convex_hull_05
v -0.001575000 0.003949000 -0.000288000
v -0.001515000 0.003958000 -0.000593000
v -0.001338000 0.003967000 -0.000830000
v -0.001196000 0.003970000 -0.000931000
v -0.001030000 0.003986000 -0.000979000
v -0.000258000 0.003984000 -0.000933000
v -0.000173000 0.003944000 -0.000772000
v -0.000104000 0.003538000 0.000133000
v -0.000096000 0.003551000 0.000840000
v -0.000229000 0.003536000 0.001367000
v -0.000356000 0.003539000 0.001413000
v -0.001135000 0.003536000 0.001392000
v -0.001449000 0.003524000 0.001167000
v -0.001520000 0.003556000 0.001012000
v -0.001614000 0.003619000 0.000539000
v -0.001597000 0.003804000 0.000211000
v -0.001617000 0.003589000 0.000395000
v -0.000048000 0.003523000 0.000547000
v -0.001029000 0.003985000 -0.000979000
v -0.000988000 0.003533000 0.001416000
v -0.001567000 0.004010000 -0.000403000
v -0.001505000 0.003990000 -0.000611000
v -0.001243000 0.003988000 -0.000903000
v -0.001011000 0.004109000 -0.001007000
v -0.000298000 0.004167000 -0.000998000
v -0.001578000 0.003998000 -0.000147000
v -0.001524000 0.004449000 0.000387000
v -0.000835000 0.004395000 -0.001029000
v -0.001525000 0.004532000 -0.000340000
v -0.001418000 0.004550000 -0.000647000
v -0.001305000 0.004558000 -0.000788000
v -0.001093000 0.004567000 -0.000937000
v -0.000801000 0.004493000 -0.001028000
v -0.000068000 0.004521000 -0.001031000
v 0.000063000 0.004668000 -0.000764000
v 0.000063000 0.004668000 0.000433000
v 0.000038000 0.004668000 0.000997000
v -0.000779000 0.004456000 0.001014000
v -0.001127000 0.004479000 0.000925000
v -0.001315000 0.004480000 0.000786000
v -0.001484000 0.004463000 0.000528000
v -0.001529000 0.004520000 0.000250000
v -0.001533000 0.004477000 -0.000273000
v -0.000106000 0.004913000 0.000433000
v -0.000635000 0.004521000 -0.001031000
usemtl collision_red
f 36 18 35
f 36 44 35
f 37 36 44
f 37 36 18
f 37 9 18
f 34 7 35
f 34 7 6
f 8 6 19
f 8 7 6
f 8 13 17
f 8 13 18
f 8 18 35
f 8 7 35
f 14 13 17
f 38 37 20
f 10 37 9
f 10 9 18
f 10 13 18
f 10 13 20
f 25 6 19
f 25 34 6
f 32 44 35
f 12 13 20
f 12 38 20
f 41 14 13
f 15 14 17
f 11 37 20
f 11 10 20
f 11 10 37
f 31 30 44
f 31 32 44
f 39 37 44
f 39 38 37
f 39 12 38
f 39 12 13
f 16 26 17
f 16 15 17
f 45 33 32
f 45 34 35
f 45 32 35
f 3 31 30
f 3 2 17
f 40 39 44
f 40 41 13
f 40 39 13
f 1 26 17
f 1 21 26
f 1 2 17
f 1 21 2
f 29 30 44
f 29 21 2
f 24 25 19
f 24 25 34
f 24 5 19
f 22 3 30
f 22 3 2
f 22 29 30
f 22 29 2
f 23 31 32
f 23 3 31
f 42 16 15
f 42 29 44
f 42 40 44
f 42 40 41
f 43 21 26
f 43 29 21
f 43 42 29
f 43 16 26
f 43 42 16
f 28 45 33
f 28 33 32
f 28 24 32
f 28 45 34
f 28 24 34
f 4 24 32
f 4 23 32
f 4 24 5
f 4 5 19
f 4 23 3
f 4 3 17
f 4 8 17
f 4 8 19
f 27 42 41
f 27 42 15
f 27 41 14
f 27 15 14
