# Sampled convex hull collision mesh generated from visual mesh slice for tip_006_1_convex_hull_09
mtllib tip_006_1_convex_hull_09.mtl
o tip_006_1_convex_hull_09
v -0.000116000 0.008511000 -0.000798000
v -0.000095000 0.008445000 -0.000802000
v 0.000063000 0.008559000 -0.000465000
v 0.000037000 0.008559000 0.000770000
v -0.001167000 0.008354000 -0.000061000
v 0.000063000 0.008559000 0.000733000
v -0.000105000 0.008366000 0.000781000
v -0.001108000 0.008898000 -0.000143000
v -0.001067000 0.008910000 -0.000347000
v -0.000971000 0.008922000 -0.000554000
v -0.000809000 0.008931000 -0.000721000
v -0.000699000 0.008934000 -0.000766000
v 0.000003000 0.008934000 -0.000773000
v 0.000054000 0.008859000 -0.000778000
v 0.000041000 0.009158000 0.000701000
v -0.000095000 0.008949000 0.000747000
v -0.000724000 0.008934000 0.000735000
v -0.000775000 0.008933000 0.000714000
v -0.000942000 0.008924000 0.000571000
v -0.001053000 0.008912000 0.000363000
v -0.001108000 0.008898000 0.000130000
v -0.001116000 0.008899000 0.000006000
v -0.000635000 0.009218000 0.000675000
v -0.000113000 0.008804000 0.000756000
v -0.001036000 0.009226000 -0.000148000
v -0.000992000 0.009231000 -0.000341000
v -0.000853000 0.009274000 -0.000557000
v -0.000805000 0.009295000 -0.000588000
v -0.000635000 0.009271000 -0.000673000
v -0.000117000 0.009240000 -0.000689000
v -0.000110000 0.009457000 -0.000507000
v -0.000106000 0.009613000 -0.000254000
v 0.000063000 0.009457000 -0.000165000
v -0.000069000 0.009649000 0.000055000
v -0.000021000 0.009638000 0.000134000
v 0.000019000 0.009457000 0.000496000
v -0.000095000 0.009287000 0.000638000
v -0.000635000 0.009267000 0.000648000
v -0.000753000 0.009254000 0.000624000
v -0.000931000 0.009222000 0.000458000
v -0.000991000 0.009231000 0.000315000
v -0.001036000 0.009226000 0.000123000
v 0.000063000 0.009457000 0.000433000
v -0.000637000 0.009652000 -0.000005000
usemtl collision_red
f 18 7 5
f 6 7 3
f 4 6 7
f 15 6 43
f 15 36 43
f 15 4 6
f 9 10 5
f 9 10 26
f 42 41 44
f 40 41 44
f 2 14 3
f 2 7 5
f 2 7 3
f 30 14 31
f 32 34 44
f 32 28 44
f 35 36 44
f 35 34 44
f 35 36 43
f 35 32 34
f 11 10 5
f 11 2 5
f 11 2 12
f 37 15 36
f 16 15 4
f 25 26 44
f 25 42 44
f 25 9 26
f 20 40 41
f 20 42 41
f 1 2 12
f 1 2 14
f 13 30 12
f 13 30 14
f 13 1 12
f 13 1 14
f 29 30 31
f 29 32 31
f 29 32 28
f 29 30 12
f 29 11 12
f 29 11 28
f 33 14 31
f 33 32 31
f 33 35 32
f 33 35 43
f 33 14 3
f 27 11 10
f 27 11 28
f 27 10 26
f 27 26 44
f 27 28 44
f 38 37 36
f 38 36 44
f 17 18 7
f 24 4 7
f 24 16 4
f 24 17 7
f 24 17 16
f 8 9 5
f 8 25 9
f 19 20 40
f 19 18 5
f 19 20 5
f 39 40 44
f 39 38 44
f 39 19 18
f 39 19 40
f 39 17 18
f 23 37 15
f 23 38 37
f 23 16 15
f 23 17 16
f 23 39 38
f 23 39 17
f 22 25 42
f 22 8 25
f 22 8 5
f 21 20 42
f 21 22 42
f 21 20 5
f 21 22 5
f 33 6 43
f 33 6 3
