# Sampled convex hull collision mesh generated from visual mesh slice for tip_006_2_convex_hull_08
mtllib tip_006_2_convex_hull_08.mtl
o tip_006_2_convex_hull_08
v -0.000063000 0.007362000 -0.000159000
v 0.000095000 0.007252000 -0.000871000
v 0.000113000 0.007147000 -0.000878000
v 0.000105000 0.007194000 0.000849000
v 0.000095000 0.007174000 0.000851000
v -0.000063000 0.007362000 0.000439000
v 0.000117000 0.007457000 0.000834000
v -0.000063000 0.007661000 -0.000459000
v 0.000975000 0.007849000 -0.000707000
v 0.001058000 0.007844000 -0.000611000
v 0.001119000 0.007844000 0.000478000
v 0.001006000 0.007854000 0.000642000
v -0.000004000 0.007661000 0.000822000
v -0.000063000 0.007661000 0.000739000
v 0.001173000 0.007836000 0.000347000
v -0.000063000 0.008260000 -0.000459000
v 0.000095000 0.008121000 -0.000821000
v 0.000112000 0.008164000 -0.000818000
v 0.001167000 0.008354000 0.000035000
v 0.000112000 0.008487000 0.000774000
v -0.000063000 0.008260000 0.000739000
v 0.000117000 0.008536000 0.000771000
usemtl collision_red
f 3 5 15
f 19 12 22
f 13 21 22
f 13 14 5
f 13 14 21
f 16 21 22
f 16 19 22
f 16 19 18
f 7 12 22
f 11 19 15
f 11 19 12
f 11 5 15
f 11 12 5
f 9 3 18
f 9 19 18
f 6 14 5
f 6 3 1
f 6 3 5
f 20 13 22
f 20 13 5
f 20 7 22
f 20 7 5
f 4 12 5
f 4 7 5
f 4 7 12
f 10 19 15
f 10 9 19
f 10 3 15
f 10 9 3
f 17 16 18
f 17 2 16
f 17 3 18
f 17 2 3
f 8 2 16
f 8 3 1
f 8 2 3
f 8 14 21
f 8 6 1
f 8 16 21
f 8 6 14
