# Sampled convex hull collision mesh generated from visual mesh slice for tip_006_2_convex_hull_06
mtllib tip_006_2_convex_hull_06.mtl
o tip_006_2_convex_hull_06
v -0.000063000 0.004967000 -0.000159000
v 0.000095000 0.004845000 -0.001012000
v 0.001505000 0.004772000 0.000251000
v 0.000113000 0.004750000 0.000992000
v -0.000063000 0.004967000 0.000439000
v 0.000095000 0.004744000 0.000439000
v -0.000063000 0.005267000 -0.000459000
v -0.000014000 0.005267000 -0.000987000
v 0.001119000 0.005642000 -0.000836000
v 0.001311000 0.005629000 -0.000624000
v 0.001366000 0.005642000 0.000475000
v 0.001089000 0.005662000 0.000815000
v -0.000063000 0.005267000 0.000739000
v 0.000960000 0.005666000 0.000884000
v -0.000063000 0.005865000 -0.000459000
v 0.000095000 0.005740000 -0.000960000
v 0.000116000 0.005672000 -0.000964000
v 0.000107000 0.005709000 0.000936000
v 0.000095000 0.005688000 0.000937000
v -0.000063000 0.005865000 0.000739000
v 0.000117000 0.005760000 0.000933000
v 0.000112000 0.006129000 0.000739000
usemtl collision_red
f 6 4 3
f 2 9 3
f 2 6 1
f 2 6 3
f 13 20 4
f 21 20 22
f 21 14 22
f 21 14 4
f 16 9 22
f 5 13 4
f 5 6 1
f 5 6 4
f 19 20 4
f 19 21 20
f 10 9 22
f 10 11 22
f 10 9 3
f 10 11 3
f 12 14 22
f 12 11 22
f 12 11 3
f 12 4 3
f 12 14 4
f 17 2 9
f 17 16 9
f 17 16 2
f 15 20 22
f 15 16 22
f 18 21 4
f 18 19 4
f 18 19 21
f 8 2 1
f 8 16 2
f 8 15 16
f 7 8 1
f 7 8 15
f 7 13 20
f 7 5 1
f 7 5 13
f 7 15 20
