# Sampled convex hull collision mesh generated from visual mesh slice for tip_006_1_convex_hull_06
mtllib tip_006_1_convex_hull_06.mtl
o tip_006_1_convex_hull_06
v -0.001505000 0.004772000 -0.000277000
v -0.000113000 0.004750000 -0.001017000
v 0.000063000 0.004967000 -0.000465000
v -0.000095000 0.004845000 0.000986000
v 0.000063000 0.004967000 0.000733000
v -0.000095000 0.004744000 0.000733000
v -0.001366000 0.005642000 -0.000501000
v -0.001089000 0.005662000 -0.000840000
v -0.000116000 0.005207000 -0.000991000
v 0.000063000 0.005566000 -0.000465000
v 0.000014000 0.005267000 0.000962000
v -0.001119000 0.005642000 0.000811000
v -0.001311000 0.005629000 0.000598000
v 0.000063000 0.005566000 0.000733000
v -0.000960000 0.005666000 -0.000909000
v -0.000107000 0.005709000 -0.000961000
v -0.000095000 0.005688000 -0.000963000
v 0.000063000 0.005865000 -0.000165000
v 0.000063000 0.005865000 0.000433000
v -0.000095000 0.005740000 0.000934000
v -0.000116000 0.005672000 0.000938000
v -0.000112000 0.006129000 0.000433000
usemtl collision_red
f 6 4 1
f 12 4 1
f 16 15 22
f 5 6 3
f 5 6 4
f 20 12 22
f 2 6 1
f 2 6 3
f 18 16 22
f 8 15 22
f 8 7 22
f 8 7 1
f 8 2 1
f 8 2 15
f 13 12 22
f 13 7 22
f 13 12 1
f 13 7 1
f 21 12 4
f 21 20 12
f 11 20 14
f 11 5 14
f 11 5 4
f 11 21 4
f 11 21 20
f 9 16 15
f 9 2 15
f 19 18 22
f 19 20 22
f 19 20 14
f 17 10 18
f 17 18 16
f 17 9 16
f 17 9 2
f 17 10 3
f 17 2 3
f 19 5 14
f 19 5 3
f 19 10 3
f 19 10 18
