# Sampled convex hull collision mesh generated from visual mesh slice for wrist_pitch_0091_convex_hull_00
mtllib wrist_pitch_0091_convex_hull_00.mtl
o wrist_pitch_0091_convex_hull_00
v -0.010616000 0.182127000 -0.005953000
v 0.002504000 0.180274000 -0.005847000
v 0.008156000 0.183378000 -0.007797000
v 0.008393000 0.182526000 -0.004751000
v 0.011000000 0.183240000 0.006245000
v 0.010996000 0.183238000 0.007385000
v 0.004129000 0.180949000 0.007403000
v -0.003007000 0.180686000 0.007385000
v -0.009615000 0.183207000 0.008298000
v -0.003769000 0.180150000 -0.005883000
v -0.016685000 0.186426000 -0.007109000
v 0.014423000 0.185958000 -0.006975000
v -0.016917000 0.186168000 -0.005989000
v 0.014551000 0.185673000 -0.005845000
v -0.001990000 0.189826000 -0.023652000
v 0.001910000 0.189707000 -0.023634000
v 0.016772000 0.188002000 0.008333000
v 0.002091000 0.189831000 0.023593000
v -0.001808000 0.189702000 0.023575000
v -0.015430000 0.187501000 0.008181000
v 0.017159000 0.187502000 0.006218000
v -0.005235000 0.189940000 0.023014000
v -0.021400000 0.192376000 -0.005966000
v -0.021102000 0.192573000 -0.007090000
v -0.010768000 0.193201000 -0.023396000
v -0.005043000 0.190695000 -0.023914000
v 0.005382000 0.190635000 -0.023845000
v 0.010990000 0.193027000 -0.023619000
v 0.019462000 0.190897000 -0.006966000
v 0.019631000 0.190663000 -0.005832000
v 0.010840000 0.193112000 0.023016000
v 0.005143000 0.190709000 0.023855000
v -0.005282000 0.190621000 0.023786000
v -0.010897000 0.192997000 0.023560000
v -0.020505000 0.192831000 0.007058000
v 0.010779000 0.193217000 0.020227000
usemtl collision_red
f 1 26 10
f 1 8 10
f 1 8 9
f 16 27 26
f 28 27 26
f 2 8 10
f 2 16 10
f 2 16 27
f 31 6 32
f 31 17 6
f 31 34 32
f 31 34 36
f 31 17 30
f 7 6 32
f 7 2 6
f 7 2 8
f 22 34 9
f 22 8 9
f 13 1 9
f 13 1 11
f 13 11 23
f 13 35 23
f 15 26 10
f 15 16 10
f 15 16 26
f 29 28 36
f 29 31 30
f 29 31 36
f 29 14 30
f 20 34 9
f 20 35 34
f 20 13 9
f 20 13 35
f 24 35 23
f 24 11 23
f 25 28 36
f 25 34 36
f 25 35 34
f 25 24 35
f 25 28 26
f 25 24 11
f 25 1 26
f 25 1 11
f 5 14 6
f 5 14 4
f 5 2 6
f 5 2 4
f 21 17 6
f 21 14 6
f 21 17 30
f 21 14 30
f 12 14 4
f 12 29 28
f 12 29 14
f 18 7 32
f 18 7 8
f 3 2 27
f 3 28 27
f 3 12 28
f 3 2 4
f 3 12 4
f 19 22 8
f 19 18 8
f 19 18 32
f 33 22 34
f 33 19 22
f 33 34 32
f 33 19 32
