# Sampled convex hull collision mesh generated from visual mesh slice for wrist_pitch_0091_convex_hull_05
mtllib wrist_pitch_0091_convex_hull_05.mtl
o wrist_pitch_0091_convex_hull_05
v -0.030231000 0.240052000 -0.014977000
v -0.029944000 0.242103000 -0.023416000
v -0.011312000 0.239930000 -0.030688000
v -0.007164000 0.239882000 -0.031438000
v 0.006788000 0.242932000 -0.031579000
v 0.012148000 0.239963000 -0.030476000
v 0.030469000 0.242909000 -0.009894000
v 0.030138000 0.240341000 0.017506000
v 0.029905000 0.242184000 0.023357000
v 0.011279000 0.239960000 0.030629000
v 0.007132000 0.239901000 0.031380000
v -0.008457000 0.240456000 0.031224000
v -0.012181000 0.239931000 0.030417000
v -0.030385000 0.243222000 0.023341000
v -0.030509000 0.242827000 0.009835000
v -0.030511000 0.242816000 0.009463000
v 0.030470000 0.242897000 -0.009522000
v -0.004237000 0.239797000 0.031667000
v -0.000377000 0.242914000 -0.031861000
v 0.000337000 0.242915000 0.031803000
v 0.007703000 0.246627000 -0.031469000
v 0.011972000 0.244211000 -0.030537000
v 0.020683000 0.243724000 -0.027712000
v 0.030343000 0.243303000 -0.023400000
v -0.008427000 0.245462000 0.031328000
v -0.012016000 0.244179000 0.030478000
v -0.020726000 0.243669000 0.027653000
v -0.030150000 0.243262000 0.023570000
v 0.030427000 0.243276000 -0.023083000
v 0.000852000 0.245463000 -0.031854000
v -0.000899000 0.245461000 0.031795000
v 0.007278000 0.247403000 -0.031511000
v 0.010789000 0.248567000 -0.030851000
v 0.020533000 0.248875000 -0.027711000
v 0.029915000 0.248712000 -0.023396000
v 0.007095000 0.249081000 0.030972000
v -0.007330000 0.247383000 0.031453000
v -0.010845000 0.248538000 0.030792000
v -0.020590000 0.248820000 0.027652000
v -0.029971000 0.248632000 0.023337000
v -0.030191000 0.248400000 0.009717000
v -0.030214000 0.248189000 0.009187000
v 0.001756000 0.248828000 -0.031783000
v -0.001813000 0.248823000 0.031724000
v -0.029094000 0.252325000 -0.029205000
v -0.028368000 0.252017000 -0.029740000
v 0.006700000 0.251072000 -0.031399000
v 0.029289000 0.253218000 -0.023394000
v 0.029481000 0.253325000 -0.009467000
v 0.030341000 0.253089000 0.016355000
v 0.029604000 0.252404000 0.027617000
v 0.028878000 0.252094000 0.028152000
v 0.001229000 0.250736000 0.031441000
v -0.006762000 0.251054000 0.031340000
v -0.029357000 0.253140000 0.023335000
v -0.029549000 0.253246000 0.009409000
v -0.029834000 0.253482000 -0.018917000
v 0.028066000 0.253644000 -0.024082000
v 0.001263000 0.251486000 -0.031662000
v -0.001326000 0.251482000 0.031603000
usemtl collision_red
f 15 1 16
f 60 51 55
f 50 51 55
f 50 55 58
f 50 49 58
f 23 24 6
f 48 49 58
f 48 50 49
f 8 50 17
f 13 18 1
f 52 60 51
f 7 50 17
f 35 24 58
f 35 48 58
f 35 48 50
f 4 18 6
f 4 1 3
f 4 18 1
f 5 4 6
f 5 4 19
f 34 33 58
f 34 24 58
f 34 23 24
f 22 23 6
f 22 33 6
f 22 34 23
f 22 34 33
f 57 1 16
f 57 55 58
f 57 45 58
f 59 45 58
f 10 8 6
f 14 13 1
f 14 13 28
f 14 15 1
f 14 40 28
f 39 40 55
f 39 40 28
f 31 60 20
f 31 44 60
f 31 18 20
f 31 44 18
f 29 35 24
f 29 35 50
f 29 7 50
f 29 24 6
f 29 8 6
f 29 8 17
f 29 7 17
f 21 33 32
f 21 5 32
f 21 33 6
f 21 5 6
f 2 57 1
f 2 57 45
f 2 1 3
f 42 15 16
f 42 57 16
f 42 14 15
f 47 33 32
f 47 33 58
f 47 59 58
f 43 5 32
f 43 47 32
f 43 47 59
f 46 4 19
f 46 59 45
f 46 4 3
f 46 2 3
f 46 2 45
f 11 18 6
f 11 10 6
f 11 18 20
f 11 10 52
f 11 36 52
f 9 10 8
f 9 10 52
f 9 52 51
f 9 50 51
f 9 8 50
f 27 13 28
f 27 39 28
f 54 44 60
f 54 60 55
f 54 39 55
f 54 38 39
f 53 52 60
f 53 36 52
f 53 11 36
f 53 60 20
f 53 11 20
f 41 14 40
f 41 42 14
f 41 42 57
f 30 43 59
f 30 46 19
f 30 46 59
f 30 5 19
f 30 43 5
f 26 38 39
f 26 27 39
f 26 38 13
f 26 27 13
f 37 44 18
f 37 54 44
f 37 54 38
f 56 57 55
f 56 41 57
f 56 40 55
f 56 41 40
f 25 37 18
f 25 38 13
f 25 37 38
f 12 13 18
f 12 25 18
f 12 25 13
