# Sampled convex hull collision mesh generated from visual mesh slice for wrist_pitch_0091_convex_hull_06
mtllib wrist_pitch_0091_convex_hull_06.mtl
o wrist_pitch_0091_convex_hull_06
v -0.029096000 0.252811000 -0.001192000
v -0.029833000 0.253014000 -0.017942000
v -0.029098000 0.254289000 -0.030147000
v -0.028735000 0.254130000 -0.030532000
v -0.013240000 0.254158000 -0.030531000
v 0.020188000 0.254778000 -0.027627000
v 0.029289000 0.253218000 -0.023394000
v 0.029481000 0.253325000 -0.009467000
v 0.029603000 0.254734000 0.027672000
v 0.029240000 0.254200000 0.028962000
v 0.013744000 0.254160000 0.029025000
v -0.020261000 0.254724000 0.027568000
v -0.029357000 0.253140000 0.023335000
v -0.030923000 0.255422000 -0.014777000
v 0.031754000 0.255387000 0.013159000
v 0.014695000 0.252001000 -0.001874000
v -0.028372000 0.254054000 -0.030718000
v 0.019522000 0.254113000 0.029148000
v -0.031159000 0.258060000 -0.018666000
v -0.028743000 0.258430000 -0.031684000
v -0.012873000 0.258437000 -0.031843000
v 0.005777000 0.256817000 -0.031228000
v 0.010954000 0.255803000 -0.030433000
v 0.028373000 0.258605000 -0.023395000
v 0.031790000 0.258603000 0.017479000
v 0.029599000 0.258687000 0.028730000
v 0.029237000 0.258505000 0.030115000
v -0.005854000 0.256802000 0.031169000
v -0.011029000 0.255774000 0.030374000
v -0.028456000 0.258529000 0.023336000
v -0.031162000 0.256072000 -0.013865000
v 0.031793000 0.255806000 0.012247000
v 0.031754000 0.255483000 0.012182000
v -0.028381000 0.258404000 -0.031883000
v -0.002605000 0.257219000 0.031346000
v -0.031155000 0.260658000 -0.019048000
v -0.029110000 0.260654000 -0.030463000
v -0.028748000 0.260655000 -0.031853000
v -0.013253000 0.260684000 -0.031893000
v 0.004716000 0.262138000 -0.031112000
v 0.010883000 0.262132000 -0.030084000
v 0.019778000 0.260203000 -0.027298000
v 0.029235000 0.260733000 0.030272000
v -0.004809000 0.262125000 0.031053000
v -0.010975000 0.262102000 0.030025000
v -0.019864000 0.260150000 0.027239000
v -0.031157000 0.259746000 -0.010191000
v 0.031788000 0.259480000 0.008573000
v 0.031660000 0.262350000 0.017884000
v -0.019029000 0.260672000 -0.032054000
v -0.001499000 0.262178000 0.031169000
v -0.029857000 0.265687000 -0.008217000
v -0.031152000 0.263256000 -0.018666000
v -0.029119000 0.264714000 -0.029929000
v -0.028752000 0.262881000 -0.031684000
v -0.013257000 0.262909000 -0.031683000
v 0.007127000 0.265255000 -0.030622000
v 0.004829000 0.265614000 -0.011060000
v 0.019254000 0.264782000 -0.027045000
v 0.027166000 0.264106000 -0.023389000
v 0.030332000 0.265771000 0.006624000
v 0.031744000 0.263174000 0.017321000
v 0.029595000 0.264793000 0.028341000
v 0.029234000 0.262962000 0.030115000
v -0.007228000 0.265236000 0.030563000
v -0.019353000 0.264731000 0.026986000
v -0.027263000 0.264033000 0.023330000
v -0.031153000 0.262448000 -0.019097000
v 0.031784000 0.262991000 0.009271000
v -0.005403000 0.265859000 0.030557000
v -0.028389000 0.262909000 -0.031883000
v -0.000749000 0.264005000 0.031052000
usemtl collision_red
f 47 13 31
f 16 10 13
f 14 13 31
f 30 67 52
f 30 47 13
f 30 47 52
f 33 7 32
f 33 15 32
f 33 15 7
f 25 15 32
f 8 16 7
f 8 16 10
f 8 15 7
f 8 15 10
f 1 16 13
f 2 17 7
f 2 16 7
f 2 1 16
f 2 14 13
f 2 1 13
f 5 17 7
f 53 47 52
f 53 54 52
f 53 47 31
f 61 52 70
f 12 11 13
f 12 11 29
f 12 45 29
f 12 30 13
f 18 11 29
f 18 35 10
f 18 10 13
f 18 11 13
f 65 45 29
f 72 64 70
f 72 65 70
f 72 64 43
f 27 35 10
f 27 35 43
f 9 15 10
f 9 25 15
f 9 27 10
f 6 5 7
f 6 5 23
f 57 71 54
f 57 54 52
f 69 25 32
f 63 64 70
f 63 61 70
f 63 64 43
f 66 65 45
f 66 65 70
f 66 52 70
f 66 67 52
f 28 65 29
f 28 18 29
f 28 18 35
f 26 27 43
f 26 63 43
f 26 63 25
f 26 9 25
f 26 9 27
f 55 71 54
f 37 55 54
f 34 71 50
f 34 21 50
f 34 21 17
f 56 71 50
f 56 57 71
f 41 6 23
f 41 57 23
f 58 61 52
f 58 57 52
f 58 57 61
f 40 56 57
f 60 69 61
f 48 69 7
f 48 7 32
f 48 69 32
f 62 69 25
f 62 69 61
f 62 63 61
f 46 12 45
f 46 66 45
f 46 12 30
f 46 30 67
f 46 66 67
f 44 72 65
f 44 28 65
f 44 28 35
f 38 34 20
f 38 37 55
f 38 55 71
f 38 34 71
f 68 53 54
f 68 37 54
f 68 36 37
f 3 36 37
f 3 38 20
f 3 38 37
f 3 2 14
f 22 5 23
f 22 57 23
f 22 40 57
f 22 21 17
f 22 5 17
f 24 69 7
f 24 60 69
f 24 6 7
f 42 41 6
f 42 24 6
f 42 24 60
f 49 63 25
f 49 62 25
f 49 62 63
f 51 44 35
f 51 44 72
f 51 35 43
f 51 72 43
f 4 2 17
f 4 3 2
f 4 3 20
f 4 34 17
f 4 34 20
f 19 3 36
f 19 68 36
f 19 14 31
f 19 3 14
f 19 53 31
f 19 68 53
f 39 22 40
f 39 56 50
f 39 40 56
f 39 21 50
f 39 22 21
f 59 41 57
f 59 42 41
f 59 42 60
f 59 57 61
f 59 60 61
