# Sampled convex hull collision mesh generated from visual mesh slice for wrist_pitch_0091_convex_hull_04
mtllib wrist_pitch_0091_convex_hull_04.mtl
o wrist_pitch_0091_convex_hull_04
v -0.029127000 0.228476000 -0.023686000
v -0.020475000 0.228012000 -0.027583000
v -0.006714000 0.229978000 -0.031165000
v 0.007397000 0.231005000 -0.031005000
v 0.011091000 0.230653000 -0.030151000
v 0.019619000 0.229872000 -0.027527000
v 0.029218000 0.229019000 -0.023401000
v 0.029125000 0.228554000 0.023627000
v 0.020474000 0.228067000 0.027524000
v 0.012598000 0.227616000 0.029765000
v 0.006708000 0.229996000 0.031106000
v -0.007406000 0.230985000 0.030946000
v -0.011099000 0.230624000 0.030092000
v -0.019624000 0.229819000 0.027468000
v -0.029221000 0.228940000 0.023342000
v -0.029500000 0.228968000 -0.019624000
v 0.029496000 0.229047000 0.019566000
v -0.000788000 0.230702000 -0.031424000
v 0.000781000 0.230704000 0.031365000
v -0.030062000 0.231826000 -0.017365000
v -0.030078000 0.233979000 -0.023417000
v -0.020544000 0.231709000 -0.027818000
v -0.011990000 0.232310000 -0.030384000
v -0.007093000 0.234602000 -0.031431000
v 0.008070000 0.233377000 -0.031053000
v 0.020217000 0.234459000 -0.027608000
v 0.030052000 0.234060000 -0.023399000
v 0.029786000 0.231848000 -0.017077000
v 0.030051000 0.231907000 0.017306000
v 0.030061000 0.234059000 0.023359000
v 0.020534000 0.231764000 0.027759000
v 0.011978000 0.232342000 0.030325000
v 0.007075000 0.234621000 0.031373000
v -0.008085000 0.233355000 0.030995000
v -0.020235000 0.234405000 0.027549000
v -0.030069000 0.233980000 0.023340000
v -0.029797000 0.231768000 0.017018000
v -0.030317000 0.233556000 -0.015996000
v 0.030301000 0.233637000 0.015938000
v -0.003826000 0.231149000 0.031273000
v 0.000481000 0.234527000 -0.031671000
v -0.000499000 0.234526000 0.031612000
v -0.030345000 0.236704000 -0.015253000
v -0.030300000 0.237556000 -0.019736000
v -0.020833000 0.235359000 -0.027828000
v -0.011684000 0.236643000 -0.030631000
v -0.007139000 0.237726000 -0.031480000
v 0.005998000 0.237555000 -0.031485000
v 0.011649000 0.235122000 -0.030380000
v 0.030382000 0.238035000 -0.023412000
v 0.030321000 0.236785000 0.015195000
v 0.030274000 0.237637000 0.019678000
v 0.020813000 0.235415000 0.027769000
v 0.011660000 0.236674000 0.030572000
v 0.007113000 0.237745000 0.031422000
v -0.006025000 0.237539000 0.031426000
v -0.011668000 0.235091000 0.030321000
v -0.030409000 0.237953000 0.023353000
v -0.030470000 0.237865000 0.023038000
v 0.030443000 0.237946000 -0.023097000
v -0.000715000 0.237601000 -0.031801000
v 0.000688000 0.237603000 0.031742000
v -0.030231000 0.240052000 -0.014977000
v -0.030173000 0.238389000 -0.023420000
v -0.020828000 0.239507000 -0.027825000
v -0.011312000 0.239930000 -0.030688000
v -0.007164000 0.239882000 -0.031438000
v 0.007789000 0.239287000 -0.031336000
v 0.012148000 0.239963000 -0.030476000
v 0.020450000 0.238822000 -0.027684000
v 0.011555000 0.241553000 -0.009110000
v 0.018750000 0.241563000 -0.009116000
v 0.030138000 0.240341000 0.017506000
v 0.030144000 0.238470000 0.023361000
v 0.020797000 0.239563000 0.027766000
v 0.011279000 0.239960000 0.030629000
v 0.007132000 0.239901000 0.031380000
v -0.008457000 0.240456000 0.031224000
v -0.012181000 0.239931000 0.030417000
v -0.020480000 0.238768000 0.027626000
v -0.018787000 0.241513000 0.009058000
v -0.030362000 0.240935000 -0.008523000
v 0.030327000 0.241016000 0.008464000
v -0.030268000 0.238172000 -0.022676000
v -0.008629000 0.241648000 0.029478000
v 0.001101000 0.239513000 -0.031838000
v -0.001133000 0.239510000 0.031780000
usemtl collision_red
f 2 7 10
f 2 15 10
f 2 15 1
f 8 7 10
f 71 81 85
f 71 72 85
f 83 72 85
f 83 50 72
f 83 50 60
f 79 58 85
f 14 15 10
f 16 15 1
f 6 2 7
f 27 50 60
f 51 83 60
f 19 11 10
f 77 76 85
f 32 11 10
f 78 79 85
f 78 77 85
f 78 77 87
f 13 14 10
f 36 58 59
f 80 79 58
f 80 36 58
f 3 6 2
f 26 6 7
f 26 27 7
f 52 83 74
f 52 51 83
f 82 71 81
f 82 81 85
f 82 58 85
f 82 58 59
f 69 50 72
f 62 77 87
f 73 83 74
f 73 75 74
f 73 83 85
f 73 76 85
f 73 75 76
f 30 52 74
f 9 8 10
f 9 32 10
f 54 75 76
f 56 78 87
f 12 19 10
f 12 13 10
f 12 19 40
f 12 56 40
f 57 13 14
f 57 78 79
f 37 36 15
f 35 80 79
f 35 57 79
f 35 57 14
f 35 80 36
f 35 14 15
f 35 36 15
f 39 27 60
f 39 51 60
f 39 30 29
f 39 52 51
f 39 30 52
f 17 8 7
f 17 29 7
f 17 30 8
f 17 30 29
f 28 27 7
f 28 29 7
f 28 39 27
f 28 39 29
f 38 36 59
f 38 37 36
f 64 45 65
f 22 2 1
f 22 45 1
f 23 3 2
f 23 22 2
f 66 82 65
f 66 82 71
f 70 69 50
f 70 69 26
f 70 27 50
f 70 26 27
f 4 3 18
f 42 19 40
f 42 62 19
f 42 62 87
f 42 56 40
f 42 56 87
f 55 77 76
f 55 54 76
f 55 62 77
f 31 9 8
f 31 9 32
f 31 54 32
f 34 12 13
f 34 57 13
f 34 57 78
f 34 56 78
f 34 12 56
f 20 38 37
f 20 16 15
f 20 37 15
f 63 82 65
f 63 64 65
f 84 63 82
f 84 63 64
f 67 71 72
f 67 66 71
f 67 69 72
f 67 86 69
f 5 3 6
f 5 4 3
f 33 54 32
f 33 55 54
f 33 32 11
f 33 55 62
f 33 19 11
f 33 62 19
f 53 54 75
f 53 31 54
f 53 75 74
f 53 30 74
f 53 30 8
f 53 31 8
f 43 82 59
f 43 38 59
f 21 20 38
f 21 84 38
f 21 16 1
f 21 20 16
f 21 84 64
f 21 45 1
f 21 64 45
f 41 4 18
f 68 86 69
f 46 22 45
f 46 23 22
f 46 45 65
f 46 66 65
f 49 5 6
f 49 26 6
f 49 69 26
f 44 84 38
f 44 43 38
f 44 84 82
f 44 43 82
f 24 3 18
f 24 23 3
f 24 46 23
f 48 41 4
f 48 41 86
f 48 68 86
f 25 5 4
f 25 49 5
f 25 48 4
f 25 48 68
f 25 68 69
f 25 49 69
f 61 41 18
f 61 24 18
f 61 41 86
f 61 67 86
f 47 61 67
f 47 61 24
f 47 24 46
f 47 67 66
f 47 46 66
