# Sampled convex hull collision mesh generated from visual mesh slice for wrist_pitch_0091_convex_hull_10
mtllib wrist_pitch_0091_convex_hull_10.mtl
o wrist_pitch_0091_convex_hull_10
v -0.010595000 0.303660000 -0.023236000
v 0.006266000 0.300256000 -0.027821000
v 0.009708000 0.300299000 -0.025327000
v 0.009779000 0.303671000 0.023809000
v -0.009903000 0.300272000 0.025268000
v -0.010908000 0.303526000 -0.022734000
v 0.010728000 0.303630000 -0.021909000
v -0.010908000 0.303684000 0.022028000
v -0.006432000 0.304649000 -0.026910000
v 0.006364000 0.304727000 -0.026897000
v 0.006945000 0.304386000 0.026506000
v 0.006304000 0.304533000 0.027056000
v -0.006488000 0.304568000 0.027007000
v -0.007296000 0.304378000 0.026312000
v -0.010912000 0.306833000 0.021596000
v 0.010727000 0.304263000 -0.022589000
v 0.005939000 0.304680000 -0.026969000
v -0.006060000 0.304524000 0.027096000
v -0.006812000 0.309831000 -0.024433000
v -0.006470000 0.309942000 -0.024628000
v 0.006337000 0.309979000 -0.024664000
v 0.006655000 0.309861000 -0.024450000
v 0.006936000 0.309068000 0.024638000
v 0.006297000 0.309351000 0.025129000
v -0.006506000 0.309316000 0.025100000
v -0.007290000 0.308982000 0.024518000
v -0.010916000 0.309728000 0.018694000
v 0.010722000 0.307814000 -0.021043000
v -0.010742000 0.307330000 0.021772000
v 0.010719000 0.310722000 0.018204000
v 0.005921000 0.309998000 -0.024697000
v -0.000035000 0.309363000 0.025164000
v -0.010918000 0.311113000 -0.017047000
v -0.006859000 0.313339000 -0.022349000
v -0.006517000 0.313451000 -0.022544000
v 0.005878000 0.313506000 -0.022613000
v 0.006292000 0.313486000 -0.022578000
v 0.010715000 0.313486000 -0.015799000
v 0.010479000 0.311024000 0.019781000
v 0.006293000 0.312944000 0.023114000
v -0.000040000 0.312955000 0.023149000
v -0.006114000 0.312947000 0.023149000
v -0.006516000 0.312907000 0.023081000
v -0.010917000 0.310835000 0.019212000
v -0.010921000 0.313769000 -0.014887000
v 0.010718000 0.311392000 -0.018917000
v 0.010609000 0.314267000 0.016989000
v -0.000041000 0.313498000 -0.022613000
usemtl collision_red
f 30 4 7
f 30 38 47
f 44 43 45
f 46 38 37
f 46 30 7
f 46 30 38
f 34 35 45
f 48 35 45
f 39 30 47
f 39 30 4
f 8 5 6
f 8 5 15
f 3 4 7
f 3 5 4
f 40 39 47
f 25 26 43
f 12 5 18
f 27 44 45
f 27 44 15
f 27 8 15
f 29 5 15
f 29 44 15
f 29 44 43
f 29 26 43
f 33 34 45
f 33 27 45
f 33 8 6
f 33 27 8
f 1 33 6
f 1 33 34
f 36 48 45
f 36 47 45
f 36 38 47
f 36 38 37
f 20 48 35
f 23 39 4
f 23 12 24
f 23 40 24
f 23 40 39
f 2 5 6
f 2 3 5
f 2 1 6
f 2 1 9
f 2 9 17
f 22 46 37
f 32 25 18
f 32 12 18
f 32 12 24
f 32 40 24
f 13 25 26
f 13 5 18
f 13 25 18
f 19 1 9
f 19 20 9
f 19 1 34
f 19 34 35
f 19 20 35
f 11 23 4
f 11 23 12
f 11 5 4
f 11 12 5
f 28 22 46
f 10 22 3
f 10 2 17
f 10 2 3
f 21 36 37
f 21 22 37
f 21 10 17
f 21 10 22
f 42 25 43
f 42 32 25
f 42 47 45
f 42 43 45
f 14 29 26
f 14 13 26
f 14 29 5
f 14 13 5
f 16 22 3
f 16 28 22
f 16 3 7
f 16 46 7
f 16 28 46
f 31 36 48
f 31 21 36
f 31 20 48
f 31 21 17
f 31 9 17
f 31 20 9
f 41 32 40
f 41 42 32
f 41 40 47
f 41 42 47
