# Sampled convex hull collision mesh generated from visual mesh slice for wrist_pitch_0091_convex_hull_03
mtllib wrist_pitch_0091_convex_hull_03.mtl
o wrist_pitch_0091_convex_hull_03
v -0.024737000 0.216058000 -0.020173000
v -0.018863000 0.216841000 -0.026744000
v -0.009442000 0.218513000 -0.029580000
v -0.007355000 0.216860000 -0.029505000
v 0.003140000 0.216011000 -0.029389000
v 0.011550000 0.218687000 -0.028552000
v 0.025269000 0.218330000 -0.024275000
v 0.026112000 0.218334000 -0.023659000
v 0.023735000 0.215617000 0.007082000
v 0.023210000 0.215525000 0.008041000
v 0.024607000 0.215529000 0.024111000
v 0.018892000 0.216891000 0.026686000
v 0.013132000 0.215606000 0.028045000
v 0.007384000 0.216879000 0.029446000
v -0.003108000 0.216003000 0.029330000
v -0.011526000 0.218656000 0.028493000
v -0.018036000 0.218481000 0.026631000
v -0.026302000 0.218264000 0.023354000
v -0.026409000 0.218265000 0.022624000
v 0.026435000 0.218336000 -0.022683000
v -0.002241000 0.218191000 -0.029858000
v 0.002267000 0.218197000 0.029799000
v -0.027024000 0.220459000 -0.023689000
v -0.019617000 0.220402000 -0.027048000
v -0.013685000 0.219662000 -0.028715000
v 0.000527000 0.222353000 -0.030570000
v 0.007136000 0.219058000 -0.029358000
v 0.027044000 0.220532000 0.023630000
v 0.019636000 0.220455000 0.026989000
v 0.013707000 0.219699000 0.028656000
v -0.000513000 0.222351000 0.030511000
v -0.003540000 0.219330000 0.029876000
v -0.027256000 0.220473000 -0.023096000
v 0.027276000 0.220546000 0.023037000
v -0.007113000 0.219039000 0.029299000
v -0.028656000 0.225779000 -0.023698000
v -0.020255000 0.224497000 -0.027335000
v -0.013297000 0.223928000 -0.029267000
v -0.008021000 0.224637000 -0.030526000
v 0.006338000 0.226004000 -0.030537000
v 0.011398000 0.224011000 -0.029350000
v 0.019105000 0.224665000 -0.027217000
v 0.028560000 0.225907000 -0.023401000
v 0.028661000 0.225856000 0.023639000
v 0.020263000 0.224552000 0.027276000
v 0.013307000 0.223963000 0.029208000
v 0.008029000 0.224659000 0.030468000
v -0.006333000 0.225987000 0.030478000
v -0.011388000 0.223981000 0.029291000
v -0.019097000 0.224614000 0.027158000
v -0.028555000 0.225831000 0.023342000
v -0.028863000 0.225835000 -0.023094000
v 0.028868000 0.225912000 0.023035000
v -0.003712000 0.222613000 0.030381000
v -0.002033000 0.225996000 -0.030902000
v 0.002037000 0.226002000 0.030843000
v -0.029127000 0.228476000 -0.023686000
v -0.020475000 0.228012000 -0.027583000
v -0.012597000 0.227582000 -0.029824000
v -0.007022000 0.227932000 -0.030951000
v 0.005859000 0.229127000 -0.030994000
v 0.009984000 0.227687000 -0.030044000
v 0.029218000 0.229019000 -0.023401000
v 0.029125000 0.228554000 0.023627000
v 0.020474000 0.228067000 0.027524000
v 0.012598000 0.227616000 0.029765000
v 0.007022000 0.227951000 0.030893000
v -0.005862000 0.229111000 0.030935000
v -0.009984000 0.227660000 0.029985000
v -0.029221000 0.228940000 0.023342000
v -0.029500000 0.228968000 -0.019624000
v 0.029496000 0.229047000 0.019566000
v -0.007161000 0.226648000 -0.030807000
v -0.000159000 0.229530000 -0.031324000
v 0.000155000 0.229530000 0.031266000
usemtl collision_red
f 63 74 72
f 5 9 10
f 11 13 10
f 11 9 10
f 75 74 72
f 75 74 71
f 75 70 71
f 1 5 2
f 1 13 10
f 1 5 10
f 57 74 71
f 57 58 74
f 20 11 9
f 15 1 18
f 15 1 13
f 19 1 18
f 19 1 33
f 19 51 18
f 60 58 74
f 4 5 2
f 36 57 58
f 61 63 74
f 61 62 63
f 61 26 74
f 43 7 63
f 34 20 11
f 12 11 13
f 67 65 75
f 52 19 33
f 52 19 51
f 52 36 33
f 52 70 71
f 52 51 70
f 52 57 71
f 52 36 57
f 59 60 58
f 55 60 73
f 55 26 73
f 55 60 74
f 55 26 74
f 3 4 2
f 3 59 38
f 21 26 5
f 21 4 5
f 21 4 26
f 68 75 70
f 68 69 70
f 49 68 69
f 23 36 33
f 23 1 2
f 23 1 33
f 23 24 2
f 23 24 36
f 40 26 5
f 40 61 26
f 6 7 5
f 8 7 5
f 8 5 9
f 8 20 9
f 8 43 20
f 8 43 7
f 64 75 72
f 64 65 75
f 30 12 13
f 29 12 11
f 29 30 12
f 31 68 75
f 37 59 58
f 37 59 38
f 37 36 58
f 37 24 36
f 25 24 2
f 25 3 2
f 25 3 38
f 25 37 38
f 25 37 24
f 39 3 4
f 39 26 73
f 39 4 26
f 39 3 59
f 39 60 73
f 39 59 60
f 50 51 18
f 50 51 70
f 50 69 70
f 50 49 69
f 17 15 18
f 17 50 18
f 17 50 49
f 54 31 68
f 42 6 7
f 42 62 63
f 42 7 63
f 27 40 5
f 27 6 5
f 27 6 40
f 28 34 11
f 53 64 72
f 53 63 72
f 53 43 63
f 53 43 20
f 53 34 20
f 66 67 65
f 56 67 75
f 56 31 75
f 56 31 67
f 14 30 13
f 14 15 13
f 16 17 15
f 16 17 49
f 48 49 68
f 48 54 68
f 48 16 49
f 41 42 62
f 41 42 6
f 41 6 40
f 41 61 62
f 41 40 61
f 45 29 11
f 45 29 30
f 45 66 65
f 44 53 64
f 44 28 34
f 44 53 34
f 44 64 65
f 44 45 65
f 44 28 11
f 44 45 11
f 47 31 67
f 47 14 31
f 47 14 30
f 47 66 67
f 47 66 30
f 22 31 15
f 22 14 15
f 22 14 31
f 32 31 15
f 32 54 31
f 35 48 54
f 35 48 16
f 35 32 54
f 35 16 15
f 35 32 15
f 46 66 30
f 46 45 30
f 46 45 66
