# Sampled convex hull collision mesh generated from visual mesh slice for wrist_pitch_0091_convex_hull_11
mtllib wrist_pitch_0091_convex_hull_11.mtl
o wrist_pitch_0091_convex_hull_11
v -0.010539000 0.314817000 -0.016677000
v -0.006517000 0.313451000 -0.022544000
v -0.006116000 0.313491000 -0.022613000
v 0.002658000 0.313502000 -0.022613000
v 0.006292000 0.313486000 -0.022578000
v 0.010474000 0.314761000 -0.016592000
v 0.010475000 0.314379000 0.017101000
v 0.006293000 0.312944000 0.023114000
v 0.005879000 0.312963000 0.023149000
v -0.006516000 0.312907000 0.023081000
v -0.007289000 0.312584000 0.022520000
v -0.010920000 0.312672000 0.016514000
v -0.010924000 0.315461000 0.013394000
v 0.010715000 0.313486000 -0.015799000
v 0.004911000 0.312530000 0.022504000
v 0.010712000 0.315734000 -0.013041000
v -0.000041000 0.313498000 -0.022613000
v -0.000040000 0.312955000 0.023149000
v -0.010928000 0.318892000 -0.009317000
v -0.010789000 0.317132000 -0.013250000
v -0.006522000 0.317436000 -0.019289000
v 0.002653000 0.317504000 -0.019345000
v 0.006286000 0.317480000 -0.019316000
v 0.010710000 0.316977000 -0.013194000
v 0.010603000 0.318976000 0.010312000
v 0.010711000 0.316581000 0.013918000
v 0.006287000 0.317098000 0.019826000
v -0.000046000 0.317119000 0.019854000
v -0.002631000 0.317115000 0.019854000
v -0.006522000 0.317054000 0.019799000
v -0.010789000 0.316744000 0.013967000
v -0.010792000 0.318933000 0.010296000
v 0.010712000 0.315846000 0.013063000
v -0.000046000 0.317501000 -0.019345000
v -0.010930000 0.320169000 -0.005611000
v -0.010792000 0.319215000 -0.009518000
v -0.006869000 0.320397000 -0.015132000
v -0.000050000 0.320668000 -0.015284000
v 0.002649000 0.320672000 -0.015284000
v 0.006599000 0.320424000 -0.015137000
v 0.010602000 0.319261000 -0.009528000
v 0.010706000 0.320386000 -0.005661000
v 0.010705000 0.320965000 0.002605000
v 0.010706000 0.320290000 0.006446000
v 0.010468000 0.319113000 0.010391000
v 0.006600000 0.320040000 0.015863000
v -0.002635000 0.320283000 0.016010000
v -0.006869000 0.320013000 0.015858000
v -0.010545000 0.319188000 0.010450000
v -0.010930000 0.320073000 0.006395000
v -0.010931000 0.320748000 0.002554000
v -0.010931000 0.320809000 -0.001727000
v -0.006872000 0.322196000 0.012184000
v -0.000050000 0.320286000 0.016010000
v -0.007305000 0.324537000 -0.001716000
v -0.007304000 0.323774000 -0.006575000
v -0.006872000 0.322488000 -0.011404000
v -0.006530000 0.322683000 -0.011518000
v -0.000053000 0.322760000 -0.011557000
v 0.002637000 0.322750000 -0.011551000
v 0.006597000 0.322515000 -0.011409000
v 0.006915000 0.323905000 -0.006605000
v 0.006914000 0.324672000 -0.001716000
v 0.005023000 0.325393000 0.000227000
v 0.006914000 0.324618000 0.002557000
v 0.006915000 0.323809000 0.007390000
v 0.006597000 0.322223000 0.012189000
v -0.003170000 0.322509000 0.012226000
v -0.006529000 0.322391000 0.012295000
v -0.006874000 0.324083000 0.007468000
v -0.007303000 0.323678000 0.007360000
v -0.007305000 0.324483000 0.002557000
v -0.005216000 0.325379000 0.000619000
v 0.005044000 0.325424000 -0.001248000
v -0.000053000 0.322468000 0.012335000
usemtl collision_red
f 73 56 74
f 15 5 14
f 33 7 14
f 64 73 74
f 64 65 74
f 6 5 14
f 23 6 40
f 23 6 5
f 2 15 12
f 2 15 5
f 62 60 74
f 18 15 9
f 18 10 15
f 11 15 12
f 11 10 15
f 11 10 30
f 31 11 30
f 31 11 12
f 31 50 32
f 8 27 9
f 8 27 7
f 8 15 9
f 8 7 14
f 8 15 14
f 46 27 7
f 46 45 67
f 25 45 44
f 66 45 44
f 66 45 67
f 66 64 65
f 52 72 51
f 52 35 56
f 36 19 35
f 36 57 56
f 36 35 56
f 55 73 56
f 55 72 73
f 55 52 56
f 55 52 72
f 24 6 40
f 24 6 14
f 3 2 21
f 61 62 60
f 63 65 74
f 63 62 74
f 39 61 40
f 39 61 60
f 39 23 40
f 37 38 21
f 58 57 56
f 58 37 57
f 58 37 38
f 58 56 74
f 28 27 9
f 28 18 9
f 49 50 32
f 49 31 32
f 13 31 12
f 13 31 50
f 13 50 51
f 13 52 51
f 13 52 35
f 13 19 12
f 13 19 35
f 26 46 7
f 26 46 45
f 26 25 45
f 26 33 7
f 26 25 44
f 75 66 67
f 1 2 12
f 1 2 21
f 1 37 21
f 22 23 5
f 22 39 23
f 42 63 62
f 42 26 44
f 42 26 33
f 42 33 14
f 43 63 65
f 43 66 44
f 43 66 65
f 43 42 44
f 43 42 63
f 59 58 38
f 59 39 60
f 59 39 38
f 59 60 74
f 59 58 74
f 54 46 27
f 54 28 27
f 54 46 67
f 54 75 67
f 29 18 10
f 29 28 18
f 29 10 30
f 70 75 66
f 70 64 73
f 70 66 64
f 70 72 73
f 70 53 69
f 70 49 53
f 20 36 19
f 20 19 12
f 20 1 12
f 20 1 37
f 20 36 57
f 20 37 57
f 4 22 5
f 34 3 21
f 34 38 21
f 34 4 3
f 34 4 22
f 34 39 38
f 34 22 39
f 41 42 24
f 41 24 40
f 41 61 40
f 41 61 62
f 41 42 62
f 16 24 14
f 16 42 14
f 16 42 24
f 48 53 69
f 48 31 30
f 48 49 53
f 48 49 31
f 47 54 28
f 47 29 28
f 47 29 30
f 47 48 30
f 47 48 69
f 47 54 75
f 68 70 69
f 68 70 75
f 68 47 69
f 68 47 75
f 71 72 51
f 71 70 72
f 71 50 51
f 71 49 50
f 71 70 49
f 17 4 5
f 17 4 3
f 17 2 5
f 17 3 2
