# Sampled convex hull collision mesh generated from visual mesh slice for wrist_pitch_0091_convex_hull_01
mtllib wrist_pitch_0091_convex_hull_01.mtl
o wrist_pitch_0091_convex_hull_01
v -0.021102000 0.192573000 -0.007090000
v -0.010780000 0.193961000 -0.023856000
v -0.004396000 0.194743000 -0.024888000
v 0.004087000 0.194789000 -0.024843000
v 0.010706000 0.193282000 -0.023815000
v 0.013093000 0.194580000 -0.023635000
v 0.018887000 0.191455000 -0.007810000
v 0.018837000 0.191457000 -0.003985000
v 0.021814000 0.193671000 0.007416000
v 0.010871000 0.193990000 0.023797000
v 0.004485000 0.194755000 0.024830000
v -0.003998000 0.194778000 0.024784000
v -0.012671000 0.194864000 0.023855000
v -0.013293000 0.194290000 0.020965000
v -0.020505000 0.192831000 0.007058000
v -0.021400000 0.192376000 -0.005966000
v 0.021905000 0.193665000 0.006278000
v -0.008045000 0.191415000 -0.022676000
v -0.012504000 0.195502000 -0.023914000
v -0.008981000 0.196376000 -0.024871000
v 0.015441000 0.197544000 -0.023950000
v 0.016139000 0.197375000 -0.023086000
v 0.022462000 0.197245000 -0.007032000
v 0.012590000 0.195536000 0.023855000
v -0.003631000 0.197584000 0.025493000
v -0.015360000 0.197503000 0.023891000
v 0.022662000 0.197083000 -0.005902000
v 0.012760000 0.194898000 -0.023914000
v -0.015636000 0.198847000 -0.023914000
v 0.018597000 0.201742000 -0.023664000
v 0.024499000 0.200877000 0.007517000
v 0.016076000 0.198616000 0.023577000
v 0.005559000 0.201602000 0.026778000
v 0.003882000 0.200542000 0.026544000
v -0.005321000 0.201627000 0.026332000
v -0.018114000 0.201833000 0.023957000
v -0.018917000 0.201607000 0.020500000
v -0.023656000 0.199256000 0.006963000
v -0.023981000 0.199633000 -0.005942000
v 0.024632000 0.200859000 0.006376000
v -0.016282000 0.198395000 -0.023098000
v 0.005461000 0.201712000 0.026795000
v -0.019542000 0.203695000 -0.023620000
v -0.007821000 0.204970000 -0.027324000
v -0.004325000 0.204675000 -0.027868000
v 0.004331000 0.204686000 -0.027868000
v 0.013663000 0.203246000 -0.025239000
v 0.018184000 0.201882000 -0.024016000
v 0.023881000 0.204476000 -0.007133000
v 0.019606000 0.203747000 0.023561000
v 0.007882000 0.204991000 0.027265000
v 0.007536000 0.205067000 0.027358000
v -0.007676000 0.205024000 0.026721000
v -0.013597000 0.203210000 0.025180000
v -0.019989000 0.203534000 -0.020979000
v 0.024109000 0.204381000 -0.006024000
v 0.006482000 0.205330000 -0.025221000
v 0.002335000 0.202685000 -0.027868000
v 0.007348000 0.205128000 0.027391000
usemtl collision_red
f 38 16 39
f 56 50 49
f 3 5 18
f 1 16 18
f 1 16 39
f 15 16 18
f 15 8 18
f 15 38 16
f 47 49 57
f 23 30 49
f 23 56 49
f 36 15 38
f 59 50 49
f 59 49 57
f 59 53 57
f 44 53 57
f 7 5 6
f 7 22 6
f 7 8 18
f 7 5 18
f 7 22 30
f 7 23 30
f 2 3 18
f 2 1 18
f 4 3 5
f 48 30 49
f 48 47 49
f 58 4 5
f 58 4 3
f 58 45 3
f 26 53 13
f 26 15 13
f 26 36 15
f 55 38 39
f 55 36 53
f 27 7 23
f 27 56 40
f 27 23 56
f 12 34 25
f 12 34 11
f 10 15 8
f 10 12 11
f 10 12 13
f 51 32 24
f 51 32 50
f 20 2 3
f 20 45 3
f 20 45 44
f 19 1 41
f 19 2 1
f 19 41 29
f 19 44 29
f 19 20 44
f 19 20 2
f 21 22 6
f 21 22 30
f 21 48 30
f 54 36 53
f 54 26 53
f 54 26 36
f 37 36 38
f 37 55 38
f 37 55 36
f 43 55 39
f 43 1 39
f 43 1 41
f 43 41 29
f 43 44 29
f 43 44 53
f 43 55 53
f 35 59 53
f 35 34 25
f 35 53 13
f 35 12 13
f 35 12 25
f 14 15 13
f 14 10 13
f 14 10 15
f 33 34 11
f 33 10 11
f 31 56 40
f 31 56 50
f 9 32 24
f 9 10 24
f 9 10 8
f 9 32 50
f 9 31 50
f 9 31 40
f 52 10 24
f 52 51 24
f 52 33 10
f 52 33 59
f 52 59 50
f 52 51 50
f 46 21 48
f 46 21 58
f 46 48 47
f 46 58 45
f 46 47 57
f 46 44 57
f 46 45 44
f 28 58 5
f 28 21 58
f 28 5 6
f 28 21 6
f 42 35 59
f 42 33 59
f 42 35 34
f 42 33 34
f 17 27 40
f 17 9 40
f 17 27 7
f 17 7 8
f 17 9 8
