# Sampled convex hull collision mesh generated from visual mesh slice for wrist_pitch_0091_convex_hull_08
mtllib wrist_pitch_0091_convex_hull_08.mtl
o wrist_pitch_0091_convex_hull_08
v -0.029143000 0.277149000 -0.016949000
v -0.028778000 0.276409000 -0.021303000
v 0.000009000 0.279512000 -0.029207000
v 0.015414000 0.279267000 -0.026447000
v 0.022482000 0.276034000 -0.022630000
v 0.029587000 0.276115000 0.006817000
v 0.029586000 0.277240000 0.015362000
v 0.029587000 0.276115000 0.019560000
v -0.002980000 0.276089000 0.029705000
v -0.009576000 0.277505000 0.028759000
v -0.021360000 0.277986000 0.023686000
v -0.022011000 0.276986000 0.010001000
v -0.029144000 0.277314000 -0.014777000
v 0.029587000 0.276420000 0.013189000
v -0.010638000 0.280509000 -0.027945000
v -0.005689000 0.280571000 -0.028532000
v 0.000465000 0.279560000 -0.029208000
v 0.018680000 0.281608000 -0.024388000
v 0.010516000 0.280537000 0.027870000
v 0.005547000 0.280586000 0.028474000
v -0.006357000 0.281556000 0.028489000
v -0.018824000 0.281557000 0.024329000
v -0.000603000 0.279559000 0.029150000
v 0.019229000 0.282150000 -0.022725000
v -0.005732000 0.284644000 -0.027746000
v 0.000512000 0.284379000 -0.028140000
v 0.011348000 0.284192000 -0.026843000
v 0.016701000 0.285147000 -0.024578000
v -0.005660000 0.285987000 0.027556000
v -0.012216000 0.284524000 0.026547000
v -0.016854000 0.285102000 0.024519000
v 0.000175000 0.284324000 -0.028143000
v -0.000327000 0.284323000 0.028084000
v -0.010579000 0.286738000 -0.025908000
v -0.005761000 0.287441000 -0.027206000
v 0.006584000 0.289878000 -0.026678000
v 0.014733000 0.288673000 -0.024649000
v 0.010421000 0.286766000 0.025849000
v 0.005597000 0.287383000 0.027156000
v -0.006750000 0.289860000 0.026620000
v -0.009906000 0.287257000 0.026517000
v -0.014896000 0.288633000 0.024590000
v -0.016415000 0.287904000 0.019555000
v 0.016254000 0.287948000 -0.019613000
v -0.010885000 0.286597000 -0.025627000
v 0.004549000 0.290043000 -0.026776000
usemtl collision_red
f 2 5 9
f 2 11 13
f 43 11 13
f 43 11 42
f 3 2 5
f 10 11 9
f 40 42 46
f 40 37 38
f 24 5 6
f 24 37 6
f 12 11 9
f 12 2 9
f 12 2 11
f 1 2 13
f 1 43 13
f 22 10 11
f 39 40 38
f 21 10 9
f 21 40 10
f 41 40 42
f 41 40 10
f 19 39 38
f 44 37 38
f 44 7 38
f 44 37 6
f 44 7 6
f 14 7 6
f 34 35 46
f 34 42 46
f 34 43 42
f 34 1 2
f 26 35 46
f 18 24 5
f 4 18 5
f 4 27 37
f 31 11 42
f 31 22 11
f 33 39 40
f 23 33 39
f 23 21 9
f 8 14 7
f 8 19 9
f 8 7 38
f 8 19 38
f 8 14 6
f 8 5 9
f 8 5 6
f 15 34 35
f 15 3 2
f 15 34 2
f 45 1 43
f 45 34 43
f 45 34 1
f 32 35 3
f 32 26 3
f 32 26 35
f 17 4 27
f 17 3 5
f 17 4 5
f 17 26 46
f 17 26 3
f 28 4 37
f 28 4 18
f 28 24 37
f 28 18 24
f 30 22 10
f 30 31 22
f 30 31 42
f 30 41 42
f 30 41 10
f 20 19 39
f 20 23 39
f 20 19 9
f 20 23 9
f 29 33 40
f 29 23 33
f 29 21 40
f 29 23 21
f 16 15 3
f 36 17 27
f 36 27 37
f 36 17 46
f 36 40 46
f 36 40 37
f 25 15 35
f 25 16 15
f 25 35 3
f 25 16 3
