# Sampled convex hull collision mesh generated from visual mesh slice for wrist_pitch_0091_convex_hull_02
mtllib wrist_pitch_0091_convex_hull_02.mtl
o wrist_pitch_0091_convex_hull_02
v -0.019542000 0.203695000 -0.023620000
v -0.014644000 0.206016000 -0.025872000
v -0.007475000 0.205047000 -0.027417000
v 0.021712000 0.206893000 -0.023125000
v 0.023881000 0.204476000 -0.007133000
v 0.020053000 0.203588000 0.020920000
v 0.019606000 0.203747000 0.023561000
v 0.010136000 0.206547000 0.027157000
v -0.006204000 0.203436000 0.026511000
v -0.007676000 0.205024000 0.026721000
v -0.021361000 0.206875000 0.023629000
v -0.021548000 0.206845000 0.023369000
v -0.025445000 0.205853000 0.006839000
v 0.024109000 0.204381000 -0.006024000
v -0.006280000 0.203394000 -0.026898000
v 0.021803000 0.206893000 -0.022676000
v 0.003812000 0.203908000 -0.027868000
v 0.007348000 0.205128000 0.027391000
v -0.023302000 0.209505000 -0.020985000
v -0.022876000 0.209629000 -0.023621000
v -0.010087000 0.208949000 -0.027640000
v -0.007460000 0.209016000 -0.028197000
v 0.015414000 0.207591000 -0.025655000
v 0.020985000 0.207007000 -0.024137000
v 0.024899000 0.208229000 0.007502000
v 0.023150000 0.209599000 0.023344000
v 0.022194000 0.210003000 0.023995000
v 0.010137000 0.208976000 0.027581000
v -0.010535000 0.207562000 0.026680000
v -0.020929000 0.206951000 0.024078000
v -0.024677000 0.206928000 -0.005853000
v 0.024994000 0.208211000 0.006361000
v 0.021604000 0.206903000 -0.023428000
v -0.007233000 0.208976000 -0.028201000
v 0.007283000 0.208996000 0.028142000
v -0.016983000 0.211763000 -0.026318000
v -0.011796000 0.211804000 -0.027762000
v 0.016570000 0.212567000 -0.026276000
v 0.023067000 0.212068000 -0.024275000
v 0.017026000 0.211809000 0.026259000
v 0.011838000 0.211836000 0.027703000
v -0.005328000 0.212449000 0.028540000
v -0.010280000 0.212459000 0.027676000
v -0.016530000 0.212523000 0.026217000
v -0.023670000 0.212038000 0.023623000
v -0.026102000 0.212225000 0.006575000
v 0.024458000 0.212021000 -0.005933000
v 0.003914000 0.213674000 0.029065000
v -0.024024000 0.214946000 -0.005222000
v -0.023696000 0.215157000 -0.006319000
v -0.025334000 0.215357000 -0.023653000
v -0.018863000 0.216841000 -0.026744000
v -0.013099000 0.215571000 -0.028104000
v -0.007355000 0.216860000 -0.029505000
v 0.003140000 0.216011000 -0.029389000
v 0.010474000 0.217088000 -0.020133000
v 0.015704000 0.216112000 -0.020173000
v 0.023789000 0.215605000 0.005938000
v 0.025367000 0.215425000 0.023595000
v 0.018892000 0.216891000 0.026686000
v 0.013132000 0.215606000 0.028045000
v 0.007384000 0.216879000 0.029446000
v -0.003108000 0.216003000 0.029330000
v -0.010446000 0.217060000 0.020075000
v -0.015672000 0.216070000 0.020115000
v -0.025619000 0.215329000 -0.023088000
v 0.025652000 0.215398000 0.023029000
v 0.003483000 0.217404000 0.029465000
v -0.003331000 0.217226000 -0.029705000
v 0.003359000 0.217235000 0.029646000
usemtl collision_red
f 13 66 46
f 55 17 69
f 55 57 69
f 55 57 39
f 14 17 15
f 52 64 69
f 52 65 64
f 52 65 66
f 58 60 67
f 58 39 67
f 58 57 39
f 56 57 69
f 56 58 57
f 56 58 60
f 49 66 46
f 1 52 20
f 1 9 15
f 1 13 9
f 19 66 20
f 19 1 20
f 54 52 69
f 54 52 53
f 54 17 69
f 38 55 39
f 38 55 17
f 47 39 67
f 47 14 39
f 51 66 20
f 51 52 20
f 51 52 66
f 32 47 67
f 32 47 14
f 50 65 66
f 50 49 66
f 50 49 65
f 68 65 64
f 68 64 69
f 68 56 69
f 68 56 60
f 62 68 60
f 62 68 70
f 31 1 13
f 31 19 1
f 31 13 66
f 31 19 66
f 24 33 39
f 24 33 17
f 24 38 39
f 16 14 39
f 5 14 17
f 5 33 17
f 6 9 15
f 6 7 9
f 6 14 15
f 59 60 67
f 12 13 9
f 12 11 9
f 30 10 29
f 30 11 9
f 30 10 9
f 61 62 60
f 61 40 60
f 48 62 70
f 18 7 9
f 34 54 17
f 34 22 17
f 34 22 54
f 37 54 53
f 37 22 54
f 36 1 52
f 36 2 1
f 36 37 2
f 36 52 53
f 36 37 53
f 3 17 15
f 3 22 17
f 3 1 15
f 3 2 1
f 23 38 17
f 23 24 17
f 23 24 38
f 4 16 14
f 4 5 14
f 4 5 33
f 4 33 39
f 4 16 39
f 25 32 14
f 25 6 14
f 25 32 67
f 26 6 7
f 26 59 67
f 26 25 67
f 26 25 6
f 44 30 29
f 41 62 28
f 41 61 62
f 41 61 40
f 8 18 7
f 8 40 7
f 8 41 28
f 8 41 40
f 35 48 62
f 35 18 48
f 35 8 18
f 35 62 28
f 35 8 28
f 21 37 2
f 21 3 2
f 21 37 22
f 21 3 22
f 27 59 60
f 27 26 59
f 27 26 7
f 27 40 60
f 27 40 7
f 63 68 70
f 63 48 70
f 63 68 65
f 45 30 11
f 45 44 30
f 45 12 11
f 45 13 46
f 45 12 13
f 45 49 46
f 45 49 65
f 45 63 65
f 45 63 44
f 43 44 29
f 43 63 44
f 43 10 29
f 42 43 10
f 42 43 63
f 42 10 9
f 42 18 9
f 42 18 48
f 42 63 48
