# Sampled convex hull collision mesh generated from visual mesh slice for wrist_pitch_0091_convex_hull_07
mtllib wrist_pitch_0091_convex_hull_07.mtl
o wrist_pitch_0091_convex_hull_07
v -0.031111000 0.264198000 -0.018317000
v -0.029122000 0.266649000 -0.029250000
v -0.028756000 0.265075000 -0.031272000
v -0.000132000 0.264955000 -0.031021000
v 0.007127000 0.265255000 -0.030622000
v 0.012284000 0.266044000 -0.029354000
v 0.019254000 0.264782000 -0.027045000
v 0.027166000 0.264106000 -0.023389000
v 0.031742000 0.263932000 0.016698000
v 0.029594000 0.267105000 0.028570000
v 0.029232000 0.265155000 0.029690000
v 0.000033000 0.264955000 0.030962000
v -0.007228000 0.265236000 0.030563000
v -0.012387000 0.266011000 0.029295000
v -0.019353000 0.264731000 0.026986000
v -0.027263000 0.264033000 0.023330000
v -0.031151000 0.264547000 -0.012180000
v 0.031782000 0.264281000 0.010561000
v 0.031742000 0.263932000 0.009620000
v 0.008298000 0.267438000 -0.030245000
v -0.019038000 0.265144000 -0.031466000
v -0.000749000 0.264005000 0.031052000
v -0.029127000 0.268984000 -0.029205000
v -0.028765000 0.269193000 -0.029566000
v 0.007667000 0.267669000 -0.030376000
v 0.012577000 0.269161000 -0.028983000
v 0.018637000 0.268675000 -0.026835000
v 0.025487000 0.268359000 -0.023634000
v 0.029593000 0.269063000 0.027617000
v 0.028491000 0.269302000 0.028032000
v -0.007774000 0.267648000 0.030318000
v -0.012688000 0.269127000 0.028924000
v -0.018746000 0.268625000 0.026776000
v -0.025596000 0.268291000 0.023575000
v 0.006872000 0.267456000 -0.030449000
v -0.007389000 0.267926000 0.030346000
v -0.028768000 0.271036000 -0.028306000
v 0.007528000 0.271376000 -0.030023000
v 0.012050000 0.271867000 -0.028879000
v 0.023319000 0.271676000 -0.024106000
v 0.024333000 0.271551000 -0.023644000
v 0.029228000 0.271126000 0.026733000
v -0.008001000 0.271248000 0.029919000
v -0.012168000 0.271834000 0.028820000
v -0.023436000 0.271614000 0.024047000
v -0.024450000 0.271486000 0.023585000
v 0.029590000 0.272513000 0.001409000
v -0.007645000 0.271356000 0.029964000
v -0.029139000 0.275082000 -0.006447000
v -0.029143000 0.277149000 -0.016949000
v -0.029139000 0.275082000 -0.023107000
v -0.010663000 0.275769000 -0.028641000
v -0.005635000 0.274720000 -0.029538000
v 0.005112000 0.274495000 -0.029913000
v 0.011055000 0.274494000 -0.028895000
v 0.022407000 0.275803000 -0.023695000
v 0.016053000 0.277610000 -0.009682000
v 0.021879000 0.277045000 -0.010059000
v 0.029588000 0.275216000 0.007190000
v 0.029586000 0.277240000 0.015362000
v 0.029587000 0.275161000 0.021519000
v 0.010534000 0.275797000 0.028582000
v 0.005509000 0.274735000 0.029480000
v -0.005237000 0.274481000 0.029854000
v -0.011180000 0.274464000 0.028836000
v -0.022535000 0.275743000 0.023636000
v -0.022611000 0.275973000 0.022571000
v -0.022011000 0.276986000 0.010001000
v -0.029144000 0.277314000 -0.014777000
v -0.012910000 0.277961000 -0.014777000
v 0.000173000 0.274793000 -0.030034000
v -0.000300000 0.274793000 0.029975000
usemtl collision_red
f 16 9 22
f 1 16 17
f 19 9 18
f 19 16 9
f 19 1 16
f 50 1 17
f 8 19 1
f 8 1 3
f 60 9 18
f 60 61 9
f 68 60 70
f 2 1 3
f 49 16 17
f 27 55 56
f 27 8 7
f 52 50 70
f 52 56 70
f 11 9 22
f 62 60 61
f 57 56 70
f 57 60 70
f 69 50 70
f 69 68 70
f 69 50 17
f 69 49 17
f 6 5 7
f 28 27 8
f 34 33 16
f 15 33 16
f 15 13 14
f 15 14 32
f 15 16 22
f 15 13 22
f 42 62 61
f 67 68 60
f 67 62 60
f 67 62 66
f 67 69 68
f 67 49 66
f 67 69 49
f 58 60 56
f 58 57 56
f 58 57 60
f 26 6 7
f 71 55 56
f 71 52 56
f 71 21 3
f 25 38 55
f 40 27 56
f 40 28 27
f 41 28 8
f 41 40 56
f 41 40 28
f 23 2 3
f 23 2 1
f 24 52 3
f 24 37 52
f 24 23 3
f 24 23 37
f 45 33 66
f 45 34 33
f 46 49 16
f 46 34 16
f 46 49 66
f 46 45 66
f 46 45 34
f 65 33 66
f 72 62 66
f 72 65 66
f 72 65 64
f 72 64 22
f 30 62 11
f 30 42 62
f 29 61 9
f 29 42 61
f 29 30 42
f 39 6 55
f 39 26 6
f 39 27 55
f 39 27 7
f 39 26 7
f 54 38 55
f 54 71 55
f 54 25 38
f 53 52 3
f 53 71 3
f 53 71 52
f 20 6 5
f 20 25 5
f 20 6 55
f 20 25 55
f 47 41 56
f 47 41 8
f 47 19 18
f 47 8 19
f 51 50 1
f 51 23 1
f 51 23 37
f 51 52 50
f 51 37 52
f 44 65 33
f 44 15 32
f 44 15 33
f 44 14 32
f 44 65 14
f 48 65 64
f 63 62 11
f 63 72 11
f 63 72 62
f 12 11 22
f 12 72 22
f 12 72 11
f 10 11 9
f 10 29 9
f 10 30 11
f 10 29 30
f 35 25 5
f 35 54 25
f 4 71 21
f 4 54 71
f 4 35 54
f 4 35 5
f 4 8 7
f 4 5 7
f 4 8 3
f 4 21 3
f 59 60 18
f 59 47 18
f 59 60 56
f 59 47 56
f 36 48 64
f 36 13 22
f 36 64 22
f 31 36 48
f 31 65 14
f 31 13 14
f 31 36 13
f 43 48 65
f 43 31 65
f 43 31 48
