# Sampled convex hull collision mesh generated from visual mesh slice for wrist_pitch_0091_convex_hull_09
mtllib wrist_pitch_0091_convex_hull_09.mtl
o wrist_pitch_0091_convex_hull_09
v -0.005872000 0.289256000 -0.026986000
v 0.006584000 0.289878000 -0.026678000
v 0.014733000 0.288673000 -0.024649000
v 0.005707000 0.289272000 0.026928000
v -0.006522000 0.291122000 0.026721000
v -0.014896000 0.288633000 0.024590000
v -0.016142000 0.288251000 0.018817000
v 0.016146000 0.288174000 -0.019132000
v 0.000748000 0.288454000 -0.027124000
v -0.000908000 0.288416000 0.027069000
v -0.009810000 0.292545000 -0.024515000
v 0.013907000 0.291743000 -0.024006000
v 0.009636000 0.292571000 0.024456000
v -0.014079000 0.291705000 0.023947000
v -0.009967000 0.296370000 -0.024189000
v -0.006257000 0.296101000 -0.027835000
v 0.006140000 0.296342000 -0.027771000
v 0.006785000 0.296166000 0.027258000
v 0.006074000 0.296117000 0.027776000
v -0.006324000 0.296325000 0.027712000
v -0.010582000 0.296579000 0.025714000
v -0.010987000 0.297266000 0.025204000
v -0.000129000 0.296206000 -0.027870000
v -0.000054000 0.296206000 0.027812000
v -0.007133000 0.300139000 -0.027288000
v -0.006454000 0.300195000 -0.027862000
v 0.006266000 0.300256000 -0.027821000
v 0.009803000 0.299931000 0.024225000
v 0.006260000 0.300212000 0.027804000
v -0.006461000 0.300239000 0.027762000
v -0.007331000 0.300163000 0.027224000
v -0.011023000 0.297318000 0.023986000
v 0.010503000 0.297278000 -0.025652000
v 0.009708000 0.300299000 -0.025327000
v -0.006048000 0.300199000 -0.027901000
v 0.005854000 0.300215000 0.027842000
usemtl collision_red
f 10 8 7
f 10 4 8
f 13 4 8
f 30 36 34
f 25 30 31
f 12 34 8
f 12 3 8
f 12 3 34
f 28 13 8
f 28 34 8
f 19 10 4
f 6 10 7
f 6 30 31
f 21 6 31
f 35 30 34
f 11 1 7
f 18 13 4
f 18 19 4
f 24 19 10
f 24 30 36
f 24 19 36
f 20 6 30
f 20 24 10
f 20 24 30
f 14 6 7
f 32 25 31
f 32 14 7
f 27 35 34
f 26 25 30
f 26 35 30
f 15 11 7
f 15 11 25
f 15 32 7
f 15 32 25
f 29 28 13
f 29 18 13
f 29 36 34
f 29 28 34
f 29 19 36
f 29 18 19
f 5 6 10
f 5 20 10
f 5 20 6
f 22 21 31
f 22 32 31
f 22 32 14
f 22 21 6
f 22 14 6
f 33 3 34
f 33 27 34
f 33 27 3
f 9 3 8
f 9 8 7
f 9 1 7
f 17 27 3
f 2 9 3
f 2 17 3
f 2 17 9
f 16 9 1
f 16 26 35
f 16 11 1
f 16 11 25
f 16 26 25
f 23 17 9
f 23 16 9
f 23 16 35
f 23 27 35
f 23 17 27
